<?xml version="1.0" encoding="UTF-8"?>
<svg id="Layer_1" data-name="Layer 1" xmlns="http://www.w3.org/2000/svg" viewBox="0 0 1400 1400">
  <defs>
    <style>
      .cls-1 {
        fill: #fff;
      }
    </style>
  </defs>
  <path class="cls-1" d="M1379.64,618.33c-3.77,0-7.2-.89-10.29-2.68-3.09-1.78-5.54-4.18-7.35-7.2-1.81-3.02-2.71-6.33-2.71-9.95s.9-6.94,2.71-9.95c1.81-3.02,4.26-5.4,7.35-7.16,3.09-1.76,6.52-2.64,10.29-2.64s7.2.88,10.29,2.64c3.09,1.76,5.54,4.15,7.35,7.16,1.81,3.02,2.71,6.33,2.71,9.95s-.91,6.94-2.71,9.95c-1.81,3.02-4.26,5.42-7.35,7.2-3.09,1.78-6.52,2.68-10.29,2.68ZM1379.64,613.05c2.86,0,5.42-.61,7.65-1.85,2.24-1.23,3.97-2.95,5.2-5.16,1.23-2.21,1.85-4.72,1.85-7.54s-.62-5.32-1.85-7.5c-1.23-2.19-2.97-3.89-5.2-5.13-2.24-1.23-4.79-1.85-7.65-1.85s-5.4.62-7.62,1.85c-2.21,1.23-3.95,2.94-5.2,5.13-1.26,2.19-1.88,4.69-1.88,7.5s.63,5.33,1.88,7.54c1.26,2.21,2.99,3.93,5.2,5.16,2.21,1.23,4.75,1.85,7.62,1.85ZM1371.95,607.17v-18.47h8.67c2.71,0,4.77.6,6.18,1.81,1.41,1.21,2.11,2.86,2.11,4.98,0,1.41-.35,2.59-1.06,3.54-.7.96-1.56,1.66-2.56,2.11l4.15,6.03h-6.03l-3.54-5.05h-2.49v5.05h-5.43ZM1380.62,597.59c.85,0,1.51-.18,1.96-.53.45-.35.68-.83.68-1.43,0-.65-.23-1.16-.68-1.51-.45-.35-1.11-.53-1.96-.53h-3.24v4h3.24Z"/>
  <g>
    <g>
      <path class="cls-1" d="M243.48,698.51v2.95c.03-.48.03-.99.03-1.47s0-.99-.03-1.47Z"/>
      <path class="cls-1" d="M211.84,578.25v39.92c-11.86-13.04-26.51-23.48-42.97-30.44-3.24-1.37-6.53-2.57-9.91-3.67-11.73-3.77-24.23-5.81-37.22-5.81-67.12,0-121.74,54.62-121.74,121.74,0,27.23,8.97,52.37,24.12,72.66.29.4.59.8.91,1.18,22.25,29.1,57.32,47.93,96.71,47.93,35.66,0,67.79-15.42,90.09-39.92v39.89h31.67v-121.74c0,.48,0,.99-.03,1.47v-2.95c.03.48.03.99.03,1.47v-121.74h-31.67ZM121.74,790.08c-32.66,0-61.34-17.48-77.11-43.61-.03-.05-.08-.13-.11-.19-8.17-13.52-12.85-29.37-12.85-46.29,0-49.67,40.4-90.07,90.07-90.07,6.08,0,11.99.62,17.72,1.77,3.03.59,6,1.37,8.89,2.25,36.73,11.38,63.48,45.65,63.48,86.05,0,49.67-40.43,90.09-90.09,90.09Z"/>
    </g>
    <g>
      <path class="cls-1" d="M503.54,698.51v2.95c.03-.48.03-.99.03-1.47s0-.99-.03-1.47Z"/>
      <path class="cls-1" d="M471.89,578.25v39.92c-11.86-13.04-26.51-23.48-42.97-30.44-3.24-1.37-6.53-2.57-9.91-3.67-11.73-3.77-24.23-5.81-37.22-5.81-67.12,0-121.74,54.62-121.74,121.74,0,27.23,8.97,52.37,24.12,72.66.29.4.59.8.91,1.18,22.25,29.1,57.32,47.93,96.71,47.93,35.66,0,67.79-15.42,90.09-39.92v39.89h31.67v-121.74c0,.48,0,.99-.03,1.47v-2.95c.03.48.03.99.03,1.47v-121.74h-31.67ZM381.79,790.08c-32.66,0-61.34-17.48-77.11-43.61-.03-.05-.08-.13-.11-.19-8.17-13.52-12.85-29.37-12.85-46.29,0-49.67,40.4-90.07,90.07-90.07,6.08,0,11.99.62,17.72,1.77,3.03.59,6,1.37,8.89,2.25,36.73,11.38,63.48,45.65,63.48,86.05,0,49.67-40.43,90.09-90.09,90.09Z"/>
    </g>
    <g>
      <path class="cls-1" d="M1106.93,698.51v2.95c.03-.48.03-.99.03-1.47s0-.99-.03-1.47Z"/>
      <path class="cls-1" d="M1075.28,578.25v39.92c-11.86-13.04-26.51-23.48-42.97-30.44-3.24-1.37-6.53-2.57-9.91-3.67-11.73-3.77-24.23-5.81-37.22-5.81-67.12,0-121.74,54.62-121.74,121.74,0,27.23,8.97,52.37,24.12,72.66.29.4.59.8.91,1.18,22.25,29.1,57.32,47.93,96.71,47.93,35.66,0,67.79-15.42,90.09-39.92v39.89h31.67v-121.74c0,.48,0,.99-.03,1.47v-2.95c.03.48.03.99.03,1.47v-121.74h-31.67ZM985.19,790.08c-32.66,0-61.34-17.48-77.11-43.61-.03-.05-.08-.13-.11-.19-8.17-13.52-12.85-29.37-12.85-46.29,0-49.67,40.4-90.07,90.07-90.07,6.08,0,11.99.62,17.72,1.77,3.03.59,6,1.37,8.89,2.25,36.73,11.38,63.48,45.65,63.48,86.05,0,49.67-40.43,90.09-90.09,90.09Z"/>
    </g>
    <path class="cls-1" d="M748.48,580.12c-6.86-1.27-13.9-1.87-21.09-1.87h-199.9v243.48h199.9c.99,0,1.98,0,2.96-.09.94.03,1.82,0,2.72-.05,5.16-.24,10.28-.8,15.27-1.73,57.19-9.86,100.81-59.88,100.81-119.9s-43.54-109.88-100.68-119.84ZM727.39,790.04h-168.24v-180.14h168.24c49.69,0,90.07,40.43,90.07,90.07s-40.38,90.07-90.07,90.07Z"/>
    <g>
      <path class="cls-1" d="M1349.23,578.85v242.91h-31.7v-165.7c-.85.87-1.7,1.73-2.56,2.62-1.65,1.66-3.33,3.38-5.03,5.11l-.26.26c-2.51,2.55-5.1,5.16-7.68,7.8-4.45,4.52-8.98,9.12-13.38,13.59-.88.9-1.75,1.79-2.62,2.67-1.75,1.77-3.48,3.52-5.16,5.23-1.23,1.27-2.46,2.51-3.66,3.73-.85.85-1.68,1.7-2.5,2.53l-1.2,1.21c-.4.4-.78.8-1.16,1.18-.78.78-1.54,1.56-2.29,2.32-5.88,5.96-10.88,11.06-14.4,14.64-.21.21-.43.42-.62.62-.9.92-1.7,1.73-2.37,2.43-.16.14-.31.29-.45.45-.71.73-1.25,1.27-1.59,1.61l-11.28,11.47-.28-.28-.02-.02-.28.29-11.28-11.47c-.35-.35-.88-.88-1.59-1.61-.14-.16-.29-.31-.45-.45-.66-.69-1.46-1.49-2.37-2.43-.19-.21-.42-.42-.62-.62-3.52-3.59-8.53-8.68-14.4-14.64-.75-.76-1.51-1.54-2.29-2.32-8.87-9.01-19.43-19.72-29.67-30.14-1.66-1.7-3.33-3.4-4.97-5.06-3.64-3.69-7.17-7.3-10.55-10.73v165.7h-31.7v-242.91l.03-.07.07-.03s46.64,47.16,82.2,83.15c4.35,4.4,8.54,8.63,12.46,12.6,2.6,2.65,5.1,5.16,7.44,7.54,1.75,1.77,3.41,3.47,4.99,5.04,1.04,1.07,2.05,2.08,3,3.05l.02-.02c.97-.95,1.96-1.98,3-3.03,3.66-3.71,7.85-7.95,12.43-12.58,3.92-3.97,8.11-8.2,12.46-12.6,2.91-2.95,5.89-5.96,8.91-9.01,33.97-34.37,73.29-74.14,73.29-74.14l.07.03.03.07Z"/>
      <path class="cls-1" d="M1223.6,674.5c2.62,2.65,5.1,5.16,7.44,7.54-2.34-2.37-4.84-4.89-7.44-7.54Z"/>
      <path class="cls-1" d="M1231.03,682.04c1.75,1.77,3.41,3.45,4.99,5.04-1.58-1.58-3.24-3.28-4.99-5.04Z"/>
      <polygon class="cls-1" points="1239.02 735.24 1239.04 735.26 1238.74 735.54 1239.02 735.24"/>
      <path class="cls-1" d="M1236.02,687.08c1.04,1.06,2.05,2.06,3.02,3.03l-.02.02c-.95-.97-1.96-1.98-3-3.05Z"/>
      <polygon class="cls-1" points="1349.23 578.74 1349.23 578.85 1349.19 578.78 1349.23 578.74"/>
    </g>
    <path class="cls-1" d="M243.51,699.99c0,.48,0,.99-.03,1.47v-2.95c.03.48.03.99.03,1.47Z"/>
  </g>
</svg>