<?xml version="1.0" encoding="UTF-8"?>
<svg id="Layer_1" data-name="Layer 1" xmlns="http://www.w3.org/2000/svg" viewBox="0 0 1200 1200">
  <defs>
    <style>
      .cls-1 {
        fill: #fff;
      }
    </style>
  </defs>
  <path class="cls-1" d="M1182.55,530c-3.23,0-6.17-.76-8.82-2.29-2.65-1.53-4.75-3.59-6.3-6.17-1.55-2.58-2.33-5.43-2.33-8.53s.78-5.95,2.33-8.53c1.55-2.58,3.65-4.63,6.3-6.14,2.65-1.51,5.59-2.26,8.82-2.26s6.17.75,8.82,2.26c2.65,1.51,4.75,3.55,6.3,6.14,1.55,2.58,2.33,5.43,2.33,8.53s-.78,5.95-2.33,8.53c-1.55,2.58-3.65,4.64-6.3,6.17-2.65,1.53-5.59,2.29-8.82,2.29ZM1182.55,525.47c2.46,0,4.64-.53,6.56-1.58,1.92-1.06,3.4-2.53,4.46-4.43,1.06-1.9,1.58-4.05,1.58-6.46s-.53-4.56-1.58-6.43c-1.06-1.87-2.54-3.34-4.46-4.39-1.92-1.06-4.1-1.58-6.56-1.58s-4.63.53-6.53,1.58c-1.9,1.06-3.38,2.52-4.46,4.39-1.08,1.87-1.62,4.02-1.62,6.43s.54,4.57,1.62,6.46c1.08,1.9,2.56,3.37,4.46,4.43,1.9,1.06,4.07,1.58,6.53,1.58ZM1175.96,520.43v-15.83h7.43c2.33,0,4.09.52,5.3,1.55,1.21,1.03,1.81,2.46,1.81,4.27,0,1.21-.3,2.22-.9,3.04-.6.82-1.34,1.42-2.2,1.81l3.55,5.17h-5.17l-3.04-4.33h-2.13v4.33h-4.65ZM1183.39,512.22c.73,0,1.29-.15,1.68-.45.39-.3.58-.71.58-1.23,0-.56-.19-.99-.58-1.29-.39-.3-.95-.45-1.68-.45h-2.78v3.43h2.78Z"/>
  <g>
    <g>
      <path class="cls-1" d="M208.7,598.73v2.52c.02-.41.02-.85.02-1.26s0-.85-.02-1.26Z"/>
      <path class="cls-1" d="M181.57,495.64v34.22c-10.17-11.18-22.72-20.13-36.83-26.09-2.78-1.17-5.6-2.2-8.49-3.14-10.05-3.24-20.77-4.98-31.9-4.98-57.53,0-104.35,46.82-104.35,104.35,0,23.34,7.69,44.89,20.68,62.28.25.34.5.69.78,1.01,19.07,24.95,49.13,41.08,82.89,41.08,30.57,0,58.11-13.22,77.22-34.22v34.19h27.15v-104.35c0,.41,0,.85-.02,1.26v-2.52c.02.41.02.85.02,1.26v-104.35h-27.15ZM104.35,677.21c-28,0-52.58-14.99-66.09-37.38-.02-.05-.07-.11-.09-.16-7-11.59-11.02-25.18-11.02-39.68,0-42.57,34.63-77.2,77.2-77.2,5.21,0,10.28.53,15.19,1.51,2.59.5,5.14,1.17,7.62,1.93,31.49,9.75,54.41,39.13,54.41,73.76,0,42.57-34.65,77.22-77.22,77.22Z"/>
    </g>
    <g>
      <path class="cls-1" d="M431.6,598.73v2.52c.02-.41.02-.85.02-1.26s0-.85-.02-1.26Z"/>
      <path class="cls-1" d="M404.48,495.64v34.22c-10.17-11.18-22.72-20.13-36.83-26.09-2.78-1.17-5.6-2.2-8.49-3.14-10.05-3.24-20.77-4.98-31.9-4.98-57.53,0-104.35,46.82-104.35,104.35,0,23.34,7.69,44.89,20.68,62.28.25.34.5.69.78,1.01,19.07,24.95,49.13,41.08,82.89,41.08,30.57,0,58.11-13.22,77.22-34.22v34.19h27.15v-104.35c0,.41,0,.85-.02,1.26v-2.52c.02.41.02.85.02,1.26v-104.35h-27.15ZM327.25,677.21c-28,0-52.58-14.99-66.09-37.38-.02-.05-.07-.11-.09-.16-7-11.59-11.02-25.18-11.02-39.68,0-42.57,34.63-77.2,77.2-77.2,5.21,0,10.28.53,15.19,1.51,2.59.5,5.14,1.17,7.62,1.93,31.49,9.75,54.41,39.13,54.41,73.76,0,42.57-34.65,77.22-77.22,77.22Z"/>
    </g>
    <g>
      <path class="cls-1" d="M948.8,598.73v2.52c.02-.41.02-.85.02-1.26s0-.85-.02-1.26Z"/>
      <path class="cls-1" d="M921.67,495.64v34.22c-10.17-11.18-22.72-20.13-36.83-26.09-2.78-1.17-5.6-2.2-8.49-3.14-10.05-3.24-20.77-4.98-31.9-4.98-57.53,0-104.35,46.82-104.35,104.35,0,23.34,7.69,44.89,20.68,62.28.25.34.5.69.78,1.01,19.07,24.95,49.13,41.08,82.89,41.08,30.57,0,58.11-13.22,77.22-34.22v34.19h27.15v-104.35c0,.41,0,.85-.02,1.26v-2.52c.02.41.02.85.02,1.26v-104.35h-27.15ZM844.45,677.21c-28,0-52.58-14.99-66.09-37.38-.02-.05-.07-.11-.09-.16-7-11.59-11.02-25.18-11.02-39.68,0-42.57,34.63-77.2,77.2-77.2,5.21,0,10.28.53,15.19,1.51,2.59.5,5.14,1.17,7.62,1.93,31.49,9.75,54.41,39.13,54.41,73.76,0,42.57-34.65,77.22-77.22,77.22Z"/>
    </g>
    <path class="cls-1" d="M641.56,497.25c-5.88-1.08-11.91-1.6-18.08-1.6h-171.34v208.7h171.34c.85,0,1.69,0,2.54-.07.8.03,1.56,0,2.33-.04,4.43-.21,8.81-.68,13.09-1.49,49.02-8.45,86.41-51.32,86.41-102.77s-37.32-94.18-86.29-102.72ZM623.48,677.17h-144.2v-154.4h144.2c42.59,0,77.2,34.66,77.2,77.2s-34.61,77.2-77.2,77.2Z"/>
    <g>
      <path class="cls-1" d="M1156.48,496.16v208.2h-27.17v-142.03c-.73.74-1.46,1.49-2.2,2.24-1.41,1.43-2.85,2.9-4.31,4.38l-.22.22c-2.15,2.18-4.37,4.43-6.58,6.68-3.82,3.88-7.69,7.81-11.47,11.65-.76.77-1.5,1.53-2.24,2.29-1.5,1.52-2.99,3.02-4.43,4.49-1.05,1.08-2.11,2.15-3.13,3.19-.73.73-1.44,1.46-2.14,2.17l-1.02,1.04c-.34.34-.67.68-1,1.01-.67.67-1.32,1.34-1.96,1.99-5.04,5.11-9.33,9.48-12.34,12.55-.18.18-.37.36-.53.53-.77.79-1.46,1.49-2.04,2.08-.13.12-.27.25-.39.39-.61.62-1.07,1.08-1.37,1.38l-9.67,9.83-.24-.24h-.01s-.24.24-.24.24l-9.67-9.83c-.3-.3-.76-.76-1.37-1.38-.12-.13-.25-.27-.39-.39-.56-.59-1.25-1.28-2.04-2.08-.16-.18-.36-.36-.53-.53-3.02-3.08-7.31-7.44-12.34-12.55-.64-.65-1.29-1.32-1.96-1.99-7.61-7.72-16.65-16.91-25.43-25.83-1.43-1.46-2.85-2.91-4.26-4.34-3.12-3.16-6.15-6.25-9.05-9.2v142.03h-27.17v-208.2l.03-.06.06-.03s39.98,40.42,70.46,71.27c3.73,3.77,7.32,7.4,10.68,10.8,2.23,2.27,4.37,4.43,6.37,6.46,1.5,1.52,2.93,2.97,4.28,4.32.89.92,1.75,1.78,2.57,2.61h.01c.83-.83,1.68-1.71,2.57-2.61,3.13-3.18,6.73-6.82,10.65-10.78,3.36-3.4,6.95-7.03,10.68-10.8,2.5-2.53,5.05-5.11,7.64-7.72,29.12-29.46,62.82-63.55,62.82-63.55l.06.03.03.06Z"/>
      <path class="cls-1" d="M1048.8,578.14c2.24,2.27,4.37,4.43,6.37,6.46-2.01-2.04-4.14-4.19-6.37-6.46Z"/>
      <path class="cls-1" d="M1055.17,584.6c1.5,1.52,2.93,2.96,4.28,4.32-1.35-1.35-2.78-2.81-4.28-4.32Z"/>
      <polygon class="cls-1" points="1062.02 630.21 1062.03 630.22 1061.78 630.46 1062.02 630.21"/>
      <path class="cls-1" d="M1059.45,588.93c.89.91,1.75,1.77,2.58,2.6h-.01c-.82-.82-1.68-1.68-2.57-2.6Z"/>
      <polygon class="cls-1" points="1156.48 496.07 1156.48 496.16 1156.45 496.1 1156.48 496.07"/>
    </g>
    <path class="cls-1" d="M208.72,599.99c0,.41,0,.85-.02,1.26v-2.52c.02.41.02.85.02,1.26Z"/>
  </g>
</svg>