<?xml version="1.0" encoding="UTF-8"?>
<svg id="Layer_1" data-name="Layer 1" xmlns="http://www.w3.org/2000/svg" viewBox="0 0 1400 1400">
  <defs>
    <style>
      .cls-1 {
        fill: #fff;
      }
    </style>
  </defs>
  <path class="cls-1" d="M1370.73,901.23h-557.74c-27.43,0-51.78-17.55-60.45-43.58l-13.44-40.3-11.16-33.47-13.44-40.3c-8.67-26.02-33.02-43.58-60.45-43.58H96.34S29.27,498.78,29.27,498.78h557.73c27.43,0,51.78,17.55,60.46,43.58l13.37,40.13,11.21,33.63s.02.06.03.1l13.4,40.2c8.67,26.02,33.03,43.58,60.46,43.58h557.74s67.07,201.23,67.07,201.23Z"/>
  <path class="cls-1" d="M1370.73,609.64h-557.74c-27.43,0-51.78-17.55-60.45-43.58l-13.44-40.3-11.16-33.47-13.44-40.3c-8.67-26.02-33.02-43.58-60.45-43.58H96.34S29.27,207.19,29.27,207.19h557.73c27.43,0,51.78,17.55,60.45,43.58l13.44,40.3,11.16,33.47,13.44,40.3c8.67,26.02,33.02,43.58,60.45,43.58h557.74s67.07,201.23,67.07,201.23Z"/>
  <path class="cls-1" d="M1370.73,1192.81h-557.74c-27.43,0-51.78-17.55-60.45-43.58l-13.44-40.3-11.16-33.47-13.44-40.3c-8.67-26.02-33.02-43.58-60.45-43.58H96.34s-67.07-201.22-67.07-201.22h557.73c27.43,0,51.78,17.55,60.46,43.58l13.37,40.13,11.21,33.63s.02.06.03.1l13.4,40.2c8.67,26.02,33.03,43.58,60.46,43.58h557.74s67.07,201.23,67.07,201.23Z"/>
</svg>