<?xml version="1.0" encoding="UTF-8"?>
<svg id="Layer_1" data-name="Layer 1" xmlns="http://www.w3.org/2000/svg" viewBox="0 0 1200 1200">
  <defs>
    <style>
      .cls-1 {
        fill: #fff;
      }
    </style>
  </defs>
  <path class="cls-1" d="M1155.43,766.63h-461.86c-22.71,0-42.88-14.54-50.06-36.09l-11.13-33.37-9.24-27.72-11.13-33.37c-7.18-21.55-27.35-36.09-50.06-36.09H100.11s-55.54-166.63-55.54-166.63h461.85c22.71,0,42.88,14.54,50.06,36.09l11.07,33.23,9.29,27.85s.02.05.03.08l11.1,33.29c7.18,21.55,27.35,36.09,50.06,36.09h461.86s55.54,166.63,55.54,166.63Z"/>
  <path class="cls-1" d="M1155.43,525.17h-461.86c-22.71,0-42.88-14.54-50.06-36.09l-11.13-33.37-9.24-27.72-11.13-33.37c-7.18-21.55-27.35-36.09-50.06-36.09H100.11s-55.54-166.63-55.54-166.63h461.85c22.71,0,42.88,14.54,50.06,36.09l11.13,33.37,9.24,27.72,11.13,33.37c7.18,21.55,27.35,36.09,50.06,36.09h461.86s55.54,166.63,55.54,166.63Z"/>
  <path class="cls-1" d="M1155.43,1008.09h-461.86c-22.71,0-42.88-14.54-50.06-36.09l-11.13-33.37-9.24-27.72-11.13-33.37c-7.18-21.55-27.35-36.09-50.06-36.09H100.11s-55.54-166.63-55.54-166.63h461.85c22.71,0,42.88,14.54,50.06,36.09l11.07,33.23,9.29,27.85s.02.05.03.08l11.1,33.29c7.18,21.55,27.35,36.09,50.06,36.09h461.86s55.54,166.63,55.54,166.63Z"/>
</svg>