<?xml version="1.0" encoding="UTF-8"?>
<svg id="Layer_1" data-name="Layer 1" xmlns="http://www.w3.org/2000/svg" viewBox="0 0 1200 1200">
  <defs>
    <style>
      .cls-1 {
        font-family: ImprintMT-Shadow, 'Imprint MT Shadow';
        font-size: 38.9px;
      }

      .cls-1, .cls-2 {
        fill: #fff;
      }
    </style>
  </defs>
  <g>
    <path class="cls-2" d="M355.78,947.81c-3.36,8.92,3.21,18.44,12.79,18.44h22.17v23.11c0,10.35-8.4,18.73-18.76,18.73h-129.97c-10.35,0-18.75-8.37-18.75-18.73v-23.11h21.77c12.07,0,22.94-7.51,27.13-18.81,33.75-89.99,67.56-180.06,101.26-270.05,1.35-3.61,4.82-6.02,8.69-6.02h24.38c14.63,0,28.76,2.04,42.16,5.85,4.19,1.18,6.54,5.65,4.99,9.72l-97.85,260.88Z"/>
    <path class="cls-2" d="M1081.32,733.19h-29.19l-36.42-86.92c3.41-1.63,6.74-3.41,10.01-5.31,23.52-13.56,43.1-33.15,56.67-56.67,12.07-20.82,19.41-44.74,20.56-70.32.17-3.84-2.9-7.08-6.74-7.08h-54.26c-8.69,0-16,6.25-17.64,14.8-6.91,35.7-38.28,62.6-75.99,62.6h-154.8c-.63,0-1.26,0-1.89.03-38.86-103.47-77.66-206.99-116.43-310.49-.63-1.66-.92-3.36-.92-4.99,0-7.48,6.08-14.14,14.2-14.14,9.32,0,16.89-7.57,16.89-16.89v-45.91h-211.35v45.91c0,9.32,7.57,16.89,16.89,16.89h.6c9.89,0,16.75,9.86,13.28,19.13-38.8,103.5-77.6,207.02-116.43,310.49-.63-.03-1.23-.03-1.86-.03h-154.8c-37.71,0-69.08-26.9-75.99-62.6-1.63-8.55-8.95-14.8-17.64-14.8h-54.26c-3.84,0-6.91,3.24-6.74,7.08,1.15,25.58,8.49,49.5,20.56,70.32,13.56,23.52,33.15,43.1,56.67,56.67,3.27,1.89,6.6,3.67,10.01,5.31l-36.42,86.92h-29.19c-1.92,0-3.53,1.61-3.44,3.53.92,19.82,9.29,37.65,22.45,50.82,13.85,13.91,33.09,22.51,54.31,22.51,41.3,0,74.93-32.52,76.77-73.33.09-1.92-1.52-3.53-3.44-3.53h-29.19l-33.24-79.38c15.34,5.13,31.75,7.89,48.78,7.89h154.8c80.18,0,146.17,61,154.03,139.11.89,8.86,8.17,15.69,17.06,15.69h44.85c8.89,0,16.17-6.83,17.06-15.69,7.86-78.12,73.84-139.11,154.03-139.11h154.8c17.03,0,33.44-2.75,48.78-7.89l-33.24,79.38h-29.19c-1.92,0-3.53,1.61-3.44,3.53.89,19.82,9.29,37.65,22.43,50.82,13.85,13.91,33.09,22.51,54.34,22.51,41.27,0,74.93-32.52,76.77-73.33.09-1.92-1.52-3.53-3.44-3.53ZM169.04,787.25c-12.7-6.22-19.3-16.09-21.85-20.45l61.77,22.86c-3.79,1.26-21.42,6.68-39.92-2.41ZM222.15,733.19h-60.25l30.14-71.92,30.11,71.92ZM143.57,544.15c-.06-.49.69-.66.83-.17,3.13,8.92,6.94,17.41,11.93,25.06,37.48,57.21,117.81,58.7,176.71,54.77-67.88,12.56-179.18,7.46-189.47-79.67ZM425.44,624.42c-.52-.03-.46-.92.06-.86,80.9,3.79,165.96,68.65,172.84,150.33-27.9-78.15-87.9-139.74-172.9-149.47ZM620.48,661.7c-7.43,8.35-14.28,17.18-20.48,26.5-6.19-9.32-13.05-18.15-20.48-26.5-5.68-6.4-11.76-12.47-18.24-18.21-21.54-19.39-46.8-34.76-74.56-44.91l113.25-302.03,113.25,302.06c-27.73,10.15-52.97,25.49-74.5,44.88-6.48,5.74-12.56,11.82-18.24,18.21ZM824.94,623.24c-81.67-3.93-134.58,33.32-185.74,89.44,32.38-67.36,114.59-99.11,185.83-90.28.52.06.46.89-.09.83ZM944.53,628c-16.66.54-33.32-.86-49.47-4.56-.49-.11-.37-.92.17-.83,68.08,10.5,132.03-12.7,160.36-78.89.17-.43.92-.23.83.23-7.6,54.31-61.02,83.25-111.9,84.05ZM985.54,787.25c-12.7-6.22-19.3-16.09-21.85-20.45l61.77,22.86c-3.79,1.26-21.42,6.68-39.92-2.41ZM977.85,733.19l30.14-71.92,30.11,71.92h-60.25Z"/>
    <path class="cls-2" d="M976.73,966.25v23.11c0,10.35-8.4,18.73-18.75,18.73h-129.97c-10.35,0-18.76-8.37-18.76-18.73v-23.11h22.17c9.58,0,16.15-9.52,12.79-18.44l-97.85-260.88c-1.52-4.07.8-8.55,4.99-9.72,13.39-3.81,27.53-5.85,42.16-5.85h24.38c3.87,0,7.34,2.41,8.69,6.02,33.7,89.99,67.51,180.06,101.26,270.05,4.19,11.3,15.06,18.81,27.13,18.81h21.77Z"/>
  </g>
  <path class="cls-2" d="M632.55,564.51h-21.02c-1.15,0-2.15.75-2.52,1.84l-6.48,19.99c-.8,2.44-4.24,2.44-5.05,0l-6.48-19.99c-.37-1.09-1.38-1.84-2.52-1.84h-21.02c-2.58,0-3.64-3.3-1.58-4.79l17.01-12.36c.95-.69,1.32-1.86.97-2.95l-6.51-19.99c-.77-2.47,2.01-4.47,4.1-2.98l17.01,12.36c.92.66,2.18.66,3.1,0l17.01-12.36c2.09-1.49,4.87.52,4.1,2.98l-6.51,19.99c-.34,1.09.03,2.27.97,2.95l17.01,12.36c2.06,1.49,1,4.79-1.58,4.79Z"/>
  <text class="cls-1" transform="translate(537.01 923.96)"><tspan x="0" y="0">SINCE</tspan><tspan x="23.33" y="36.88">2024</tspan></text>
</svg>