<?xml version="1.0" encoding="UTF-8"?>
<svg id="Layer_1" data-name="Layer 1" xmlns="http://www.w3.org/2000/svg" viewBox="0 0 1400 1400">
  <defs>
    <style>
      .cls-1 {
        font-family: ImprintMT-Shadow, 'Imprint MT Shadow';
        font-size: 46.97px;
      }

      .cls-1, .cls-2 {
        fill: #fff;
      }
    </style>
  </defs>
  <g>
    <path class="cls-2" d="M405.09,1120.02c-4.05,10.77,3.88,22.27,15.45,22.27h26.77v27.91c0,12.5-10.15,22.61-22.65,22.61h-156.95c-12.5,0-22.65-10.11-22.65-22.61v-27.91h26.28c14.58,0,27.7-9.07,32.76-22.72,40.76-108.67,81.59-217.45,122.28-326.12,1.63-4.36,5.82-7.27,10.49-7.27h29.44c17.66,0,34.73,2.46,50.91,7.06,5.06,1.42,7.9,6.82,6.03,11.74l-118.16,315.03Z"/>
    <path class="cls-2" d="M1281.24,860.84h-35.25l-43.98-104.97c4.12-1.97,8.14-4.12,12.09-6.41,28.4-16.38,52.05-40.03,68.43-68.43,14.58-25.14,23.44-54.02,24.83-84.91.21-4.64-3.5-8.55-8.14-8.55h-65.52c-10.49,0-19.32,7.55-21.3,17.87-8.35,43.12-46.23,75.6-91.77,75.6h-186.94c-.76,0-1.52,0-2.29.03-46.92-124.95-93.78-249.96-140.6-374.95-.76-2.01-1.11-4.05-1.11-6.03,0-9.04,7.34-17.07,17.14-17.07,11.25,0,20.4-9.14,20.4-20.4v-55.44h-255.23v55.44c0,11.25,9.14,20.4,20.4,20.4h.73c11.95,0,20.22,11.91,16.03,23.1-46.86,124.98-93.71,250-140.6,374.95-.76-.03-1.49-.03-2.25-.03h-186.94c-45.54,0-83.43-32.48-91.77-75.6-1.97-10.32-10.81-17.87-21.3-17.87h-65.52c-4.64,0-8.35,3.91-8.14,8.55,1.39,30.89,10.25,59.77,24.83,84.91,16.38,28.4,40.03,52.05,68.43,68.43,3.95,2.29,7.96,4.43,12.09,6.41l-43.98,104.97h-35.25c-2.32,0-4.26,1.94-4.16,4.26,1.11,23.93,11.22,45.47,27.12,61.37,16.73,16.8,39.96,27.18,65.59,27.18,49.87,0,90.49-39.27,92.71-88.55.1-2.32-1.84-4.26-4.16-4.26h-35.25l-40.14-95.86c18.53,6.2,38.34,9.52,58.91,9.52h186.94c96.83,0,176.51,73.66,186,167.99,1.07,10.7,9.87,18.94,20.61,18.94h54.16c10.73,0,19.53-8.24,20.61-18.94,9.49-94.33,89.17-167.99,186-167.99h186.94c20.57,0,40.38-3.32,58.91-9.52l-40.14,95.86h-35.25c-2.32,0-4.26,1.94-4.16,4.26,1.07,23.93,11.22,45.47,27.08,61.37,16.73,16.8,39.96,27.18,65.62,27.18,49.83,0,90.49-39.27,92.71-88.55.1-2.32-1.84-4.26-4.16-4.26ZM179.57,926.12c-15.34-7.51-23.31-19.43-26.39-24.69l74.59,27.6c-4.57,1.52-25.87,8.07-48.21-2.91ZM243.71,860.84h-72.76l36.4-86.85,36.36,86.85ZM148.82,632.56c-.07-.59.83-.8,1-.21,3.77,10.77,8.38,21.02,14.41,30.27,45.26,69.09,142.26,70.89,213.39,66.14-81.97,15.17-216.37,9-228.8-96.2ZM489.2,729.49c-.62-.03-.55-1.11.07-1.04,97.69,4.57,200.41,82.91,208.72,181.53-33.7-94.37-106.14-168.76-208.79-180.49ZM724.73,774.51c-8.97,10.08-17.25,20.74-24.73,32-7.48-11.25-15.76-21.92-24.73-32-6.86-7.72-14.2-15.06-22.03-21.99-26.01-23.41-56.52-41.97-90.04-54.23l136.76-364.73,136.76,364.76c-33.49,12.26-63.96,30.79-89.97,54.2-7.83,6.93-15.17,14.27-22.03,21.99ZM971.64,728.07c-98.63-4.74-162.52,40.24-224.3,108.01,39.1-81.35,138.38-119.68,224.41-109.02.62.07.55,1.07-.1,1ZM1116.05,733.82c-20.12.66-40.24-1.04-59.74-5.51-.59-.14-.45-1.11.21-1,82.21,12.67,159.44-15.34,193.65-95.27.21-.52,1.11-.28,1,.28-9.18,65.59-73.69,100.53-135.13,101.5ZM1165.57,926.12c-15.34-7.51-23.31-19.43-26.39-24.69l74.59,27.6c-4.57,1.52-25.87,8.07-48.21-2.91ZM1156.29,860.84l36.4-86.85,36.36,86.85h-72.76Z"/>
    <path class="cls-2" d="M1154.94,1142.28v27.91c0,12.5-10.15,22.61-22.65,22.61h-156.95c-12.5,0-22.65-10.11-22.65-22.61v-27.91h26.77c11.57,0,19.5-11.5,15.45-22.27l-118.16-315.03c-1.84-4.92.97-10.32,6.03-11.74,16.17-4.61,33.25-7.06,50.91-7.06h29.44c4.68,0,8.87,2.91,10.49,7.27,40.69,108.67,81.52,217.45,122.28,326.12,5.06,13.64,18.18,22.72,32.76,22.72h26.28Z"/>
  </g>
  <path class="cls-2" d="M739.31,657.14h-25.38c-1.39,0-2.6.9-3.05,2.22l-7.83,24.14c-.97,2.94-5.13,2.94-6.1,0l-7.83-24.14c-.45-1.32-1.66-2.22-3.05-2.22h-25.38c-3.12,0-4.4-3.98-1.9-5.78l20.54-14.93c1.14-.83,1.59-2.25,1.18-3.57l-7.86-24.14c-.93-2.98,2.42-5.4,4.95-3.6l20.54,14.93c1.11.8,2.63.8,3.74,0l20.54-14.93c2.53-1.8,5.89.62,4.95,3.6l-7.86,24.14c-.42,1.32.03,2.74,1.18,3.57l20.54,14.93c2.49,1.8,1.21,5.78-1.9,5.78Z"/>
  <text class="cls-1" transform="translate(623.93 1091.22)"><tspan x="0" y="0">SINCE</tspan><tspan x="28.18" y="44.53">2024</tspan></text>
</svg>