<?xml version="1.0" encoding="UTF-8"?>
<svg id="Layer_1" data-name="Layer 1" xmlns="http://www.w3.org/2000/svg" viewBox="0 0 1400 1400">
  <defs>
    <style>
      .cls-1 {
        fill: #fff;
      }
    </style>
  </defs>
  <g>
    <path class="cls-1" d="M327.15,778.78h37.23v60.17h-73.7v.38l-216.97-.38H0v-60.17h25.19c21.06-38.35,36.48-74.01,46.25-106.98,9.78-32.96,14.67-70,14.67-111.12h240.66l.38,218.1ZM155.3,618.97c-3.76,28.08-10.09,54.78-18.99,80.09-8.9,25.32-20.49,51.89-34.78,79.72h152.29v-159.44l-98.52-.38Z"/>
    <path class="cls-1" d="M639.63,572.53c27.57,12.66,49.32,30.15,65.24,52.46,15.92,22.31,23.88,47.38,23.88,75.21s-7.65,52.52-22.94,74.83c-15.29,22.31-36.66,39.8-64.11,52.46-27.45,12.66-58.73,18.99-93.82,18.99-29.08,0-55.41-4.64-78.96-13.91-23.57-9.27-43.37-22.5-59.42-39.67-16.04-17.17-27.45-37.66-34.22-61.48h82.35c7.52,17.3,19.36,30.52,35.53,39.67,16.17,9.15,34.27,13.73,54.34,13.73,22.81,0,43.24-5.32,61.29-15.98,18.05-10.65,29.95-25.51,35.72-44.56h-118.44v-48.51h118.07c-4.01-12.53-11.1-23.44-21.24-32.71-10.15-9.27-21.88-16.29-35.16-21.06-13.29-4.76-26.7-7.14-40.23-7.14-11.79,0-23.94,2.13-36.48,6.39-12.53,4.27-23.75,10.53-33.66,18.8-9.9,8.27-16.86,18.18-20.87,29.71l-81.22-.38c6.27-23.56,17.42-44.05,33.47-61.48,16.04-17.42,35.97-30.83,59.79-40.23,23.81-9.4,50.26-14.1,79.34-14.1,33.59,0,64.17,6.33,91.75,18.99Z"/>
    <path class="cls-1" d="M1137.49,560.68v278.26h-78.21v-149.66l-72.95,149.66h-74.46l-78.59-152.67v152.67h-77.84v-278.26h91.38l101.91,203.06,98.89-203.06h89.87Z"/>
  </g>
  <polygon class="cls-1" points="1354.5 699.81 1400 745.31 1344.7 800.61 1299.2 755.12 1253.71 800.61 1198.4 745.31 1243.9 699.81 1198.4 654.31 1253.71 599.01 1299.2 644.51 1344.7 599.01 1400 654.31 1354.5 699.81"/>
</svg>