<?xml version="1.0" encoding="UTF-8"?>
<svg id="Layer_1" data-name="Layer 1" xmlns="http://www.w3.org/2000/svg" viewBox="0 0 1200 1200">
  <defs>
    <style>
      .cls-1 {
        fill: #fff;
      }
    </style>
  </defs>
  <g>
    <path class="cls-1" d="M280.41,667.52h31.91v51.57h-63.17v.32l-185.97-.32H0v-51.57h21.59c18.05-32.88,31.26-63.44,39.64-91.7,8.38-28.25,12.57-60,12.57-95.24h206.28l.32,186.94ZM133.11,530.54c-3.22,24.07-8.65,46.95-16.28,68.65-7.63,21.71-17.57,44.48-29.81,68.33h130.54v-136.66l-84.45-.32Z"/>
    <path class="cls-1" d="M548.25,490.74c23.63,10.85,42.27,25.84,55.92,44.96,13.64,19.13,20.47,40.61,20.47,64.46s-6.56,45.02-19.66,64.14c-13.11,19.13-31.42,34.11-54.95,44.96-23.53,10.85-50.34,16.28-80.42,16.28-24.93,0-47.49-3.98-67.68-11.93-20.2-7.95-37.18-19.28-50.93-34-13.75-14.71-23.53-32.28-29.33-52.7h70.59c6.44,14.83,16.6,26.16,30.46,34,13.86,7.85,29.38,11.77,46.57,11.77,19.55,0,37.06-4.56,52.54-13.7,15.47-9.13,25.67-21.86,30.61-38.19h-101.52v-41.58h101.2c-3.44-10.74-9.51-20.09-18.21-28.04-8.7-7.95-18.75-13.96-30.14-18.05-11.39-4.08-22.88-6.12-34.49-6.12-10.1,0-20.52,1.83-31.27,5.48-10.74,3.66-20.36,9.02-28.85,16.12-8.49,7.09-14.45,15.58-17.89,25.46l-69.62-.32c5.37-20.19,14.94-37.76,28.68-52.7,13.75-14.93,30.84-26.43,51.25-34.49,20.41-8.06,43.08-12.09,68.01-12.09,28.8,0,55,5.43,78.65,16.28Z"/>
    <path class="cls-1" d="M974.99,480.58v238.51h-67.04v-128.28l-62.53,128.28h-63.82l-67.36-130.86v130.86h-66.72v-238.51h78.32l87.35,174.05,84.77-174.05h77.03Z"/>
  </g>
  <polygon class="cls-1" points="1161 599.84 1200 638.84 1152.6 686.24 1113.6 647.24 1074.6 686.24 1027.2 638.84 1066.2 599.84 1027.2 560.84 1074.6 513.44 1113.6 552.44 1152.6 513.44 1200 560.84 1161 599.84"/>
</svg>