<?xml version="1.0" encoding="UTF-8"?>
<svg id="Layer_1" data-name="Layer 1" xmlns="http://www.w3.org/2000/svg" viewBox="0 0 1400 1400">
  <defs>
    <style>
      .cls-1 {
        fill: #fff;
      }
    </style>
  </defs>
  <path class="cls-1" d="M837.92,207.19H260.14c-29.25,0-52.95,23.71-52.95,52.95v879.72c0,29.25,23.71,52.95,52.95,52.95h577.78c195.99,0,354.89-158.9,354.89-354.89v-275.84c0-196.04-158.9-354.89-354.89-354.89ZM895.14,450.78l19.2-7.09c10.75-3.99,19.25-12.49,23.24-23.28l7.14-19.15c.66-1.83,3.19-1.83,3.85,0l7.09,19.15c3.99,10.8,12.49,19.29,23.28,23.28l19.15,7.09c1.83.66,1.83,3.19,0,3.9l-19.15,7.09c-10.8,3.99-19.29,12.49-23.28,23.24l-7.09,19.2c-.66,1.78-3.19,1.78-3.85,0l-7.14-19.2c-3.99-10.75-12.49-19.25-23.24-23.24l-19.2-7.09c-1.78-.7-1.78-3.24,0-3.9ZM991.52,722.81l-112.8,41.73c-63.33,23.42-113.27,73.37-136.7,136.75l-41.73,112.76c-3.94,10.61-18.87,10.61-22.81,0l-41.73-112.76c-23.42-63.37-73.37-113.32-136.7-136.75l-112.8-41.73c-10.61-3.9-10.61-18.92,0-22.81l112.8-41.73c63.33-23.42,113.27-73.37,136.7-136.7l41.73-112.8c3.94-10.61,18.87-10.61,22.81,0l41.73,112.8c23.42,63.33,73.37,113.27,136.7,136.7l112.8,41.73c10.61,3.9,10.61,18.92,0,22.81Z"/>
</svg>