<?xml version="1.0" encoding="UTF-8"?>
<svg id="Layer_1" data-name="Layer 1" xmlns="http://www.w3.org/2000/svg" viewBox="0 0 1200 1200">
  <defs>
    <style>
      .cls-1 {
        fill: #fff;
      }
    </style>
  </defs>
  <path class="cls-1" d="M714.21,191.91H235.76c-24.22,0-43.85,19.63-43.85,43.85v728.49c0,24.22,19.63,43.85,43.85,43.85h478.45c162.3,0,293.88-131.59,293.88-293.88v-228.42c0-162.33-131.59-293.88-293.88-293.88ZM761.6,393.62l15.9-5.87c8.9-3.3,15.94-10.34,19.24-19.28l5.91-15.86c.54-1.52,2.64-1.52,3.19,0l5.87,15.86c3.3,8.94,10.34,15.98,19.28,19.28l15.86,5.87c1.52.54,1.52,2.64,0,3.23l-15.86,5.87c-8.94,3.3-15.98,10.34-19.28,19.24l-5.87,15.9c-.54,1.48-2.64,1.48-3.19,0l-5.91-15.9c-3.3-8.9-10.34-15.94-19.24-19.24l-15.9-5.87c-1.48-.58-1.48-2.68,0-3.23ZM841.4,618.89l-93.41,34.56c-52.44,19.4-93.8,60.76-113.2,113.24l-34.56,93.37c-3.27,8.79-15.63,8.79-18.89,0l-34.56-93.37c-19.4-52.48-60.76-93.84-113.2-113.24l-93.41-34.56c-8.79-3.23-8.79-15.67,0-18.89l93.41-34.56c52.44-19.4,93.8-60.76,113.2-113.2l34.56-93.41c3.27-8.79,15.63-8.79,18.89,0l34.56,93.41c19.4,52.44,60.76,93.8,113.2,113.2l93.41,34.56c8.79,3.23,8.79,15.67,0,18.89Z"/>
</svg>