<?xml version="1.0" encoding="UTF-8"?>
<svg id="Layer_1" data-name="Layer 1" xmlns="http://www.w3.org/2000/svg" viewBox="0 0 1200 1200">
  <defs>
    <style>
      .cls-1 {
        fill: #fff;
      }
    </style>
  </defs>
  <path class="cls-1" d="M832.46,1008.09h-319.38c-.49,0-.88-.39-.88-.88-.8-193.4-136.12-355.06-317.24-396.24-4.37-.99-7.96-4.46-8.49-8.9-.64-5.36,2.92-10.12,8.04-11.28,181.61-41.07,317.29-203.24,317.7-397.17,0-.49.39-.88.88-.88,106.64-.28,213.28-.55,319.92-.83.6,0,1.04.59.86,1.17-74.12,236.32-294.86,407.75-555.62,407.75,260.17,0,480.46,170.63,555.09,406.09.18.58-.25,1.17-.86,1.17Z"/>
  <path class="cls-1" d="M1012.95,600.87c-74.48,6.68-138.8,48.59-176.19,108.95-1.03,1.67-3.41,1.67-4.45,0-37.34-60.29-101.56-102.18-175.93-108.93-.88-.08-.88-1.32,0-1.4,74.48-6.68,138.81-48.6,176.18-108.96,1.03-1.67,3.41-1.67,4.45,0,37.33,60.3,101.56,102.19,175.94,108.94.88.08.88,1.32,0,1.4Z"/>
</svg>