<?xml version="1.0" encoding="UTF-8"?>
<svg id="Layer_1" data-name="Layer 1" xmlns="http://www.w3.org/2000/svg" viewBox="0 0 1400 1400">
  <defs>
    <style>
      .cls-1 {
        fill: #fff;
      }
    </style>
  </defs>
  <path class="cls-1" d="M980.72,1192.81h-385.69c-.59,0-1.06-.48-1.06-1.06-.97-233.55-164.38-428.77-383.1-478.49-5.27-1.2-9.62-5.38-10.25-10.75-.77-6.47,3.52-12.23,9.7-13.62,219.31-49.59,383.16-245.43,383.65-479.62,0-.59.47-1.06,1.06-1.07,128.78-.33,257.55-.66,386.33-1,.73,0,1.26.71,1.04,1.41-89.51,285.38-356.07,492.4-670.97,492.4,314.18,0,580.2,206.06,670.32,490.4.22.7-.3,1.41-1.03,1.41Z"/>
  <path class="cls-1" d="M1198.68,701.05c-89.94,8.07-167.62,58.68-212.76,131.57-1.25,2.02-4.12,2.02-5.37,0-45.09-72.8-122.65-123.39-212.45-131.54-1.06-.1-1.06-1.59,0-1.69,89.94-8.07,167.62-58.69,212.76-131.58,1.25-2.02,4.12-2.02,5.37,0,45.08,72.81,122.65,123.4,212.46,131.56,1.06.1,1.06,1.59,0,1.69Z"/>
</svg>