<?xml version="1.0" encoding="UTF-8"?>
<svg id="Layer_1" data-name="Layer 1" xmlns="http://www.w3.org/2000/svg" viewBox="0 0 1400 1400">
  <defs>
    <style>
      .cls-1 {
        fill: #fff;
      }
    </style>
  </defs>
  <g>
    <path class="cls-1" d="M195.26,969.16c17.77,0,30.23-2.03,37.39-6.08,7.15-4.06,10.73-8.4,10.73-13.04,0-3.1-.97-5.9-2.9-8.4-1.94-2.52-5.89-5.03-11.88-7.54-6-2.52-14.4-5.32-25.22-8.4-10.82-3.1-24.92-6.77-42.31-11.01-21.26-5.03-40.19-10.14-56.8-15.36-16.62-5.22-30.72-11.3-42.31-18.26-11.59-6.96-20.49-15.45-26.66-25.51-6.19-10.04-9.28-22.41-9.28-37.09,0-16.23,3.77-28.98,11.3-38.26,7.53-9.28,17.48-16.23,29.85-20.87-13.53-10.04-24.15-21.64-31.88-34.78-7.74-13.13-11.6-27.62-11.6-43.47s3.57-29.17,10.73-42.31c7.15-13.13,16.9-24.43,29.27-33.91,12.36-9.46,27.24-17.1,44.64-22.9,17.38-5.8,36.13-8.88,56.22-9.27,5.02-10.04,11.5-20.29,19.42-30.72,7.91-10.43,16.9-19.8,26.96-28.11,10.04-8.3,21.16-15.16,33.33-20.58,12.18-5.41,25.02-8.11,38.55-8.11,17.39,0,31.3,3.77,41.74,11.3,10.43,7.53,15.65,17.49,15.65,29.85,0,15.46-3.58,25.99-10.72,31.59-7.15,5.61-16.33,8.41-27.53,8.41-6.95,0-12.95-.87-17.97-2.61-5.03-1.74-10.05-3.57-15.07-5.51-5.03-1.93-10.05-3.77-15.08-5.51-5.03-1.74-11.01-2.61-17.97-2.61-22.02,0-38.06,7.73-48.11,23.19,19.32,1.16,37,4.74,53.03,10.72,16.03,6,29.86,13.72,41.45,23.19,11.59,9.47,20.67,20.49,27.24,33.04,6.56,12.56,9.85,26.18,9.85,40.86,0,15.46-3.77,29.76-11.3,42.89-7.54,13.14-17.88,24.54-31.01,34.2-13.14,9.67-28.69,17.2-46.66,22.61-17.97,5.42-37.59,8.11-58.83,8.11-11.22,0-20.29.2-27.24.58-6.96.39-12.46,1.07-16.52,2.03-4.06.97-6.77,2.03-8.11,3.19-1.36,1.16-2.03,2.52-2.03,4.06,0,1.94,1.74,3.77,5.22,5.51,3.48,1.74,9.17,3.68,17.1,5.8,7.91,2.13,18.35,4.35,31.3,6.67,12.95,2.32,28.69,5.02,47.24,8.11,39.42,6.57,68.69,18.46,87.82,35.65,19.12,17.19,28.69,36.42,28.69,57.67,0,15.07-4.44,28.49-13.33,40.28-8.89,11.78-20.87,21.64-35.94,29.56-15.07,7.91-32.56,14-52.46,18.26-19.91,4.25-40.87,6.38-62.89,6.38-53.33,0-92.74-6.57-118.25-19.71-25.51-13.14-38.26-30.14-38.26-51.01,0-11.21,4.15-20,12.46-26.38,8.3-6.37,18.06-9.56,29.27-9.56,13.14,0,24.73,3.28,34.78,9.85,10.04,6.56,20.18,13.81,30.43,21.74,10.24,7.91,21.16,15.16,32.75,21.73,11.6,6.57,25.51,9.85,41.74,9.85ZM157,616.16c-6.19,0-11.22,1.36-15.08,4.06-3.87,2.71-6.95,6-9.27,9.85-2.32,3.87-3.87,7.93-4.64,12.17-.78,4.26-1.16,7.93-1.16,11.01,0,5.42,1.06,13.43,3.19,24.05,2.12,10.63,5.5,21.16,10.14,31.59,4.64,10.43,10.73,19.52,18.26,27.24,7.54,7.74,16.71,11.59,27.53,11.59,6.96,0,12.46-1.35,16.52-4.06,4.05-2.7,7.04-5.89,8.98-9.56,1.93-3.67,3.19-7.63,3.77-11.88.58-4.25.87-7.92.87-11.01,0-5.8-.87-14-2.61-24.64-1.74-10.62-4.73-21.16-8.98-31.59-4.26-10.43-10.24-19.51-17.97-27.24-7.74-7.73-17.59-11.59-29.56-11.59Z"/>
    <path class="cls-1" d="M652.88,827.14l11.59,9.28c4.64,3.87,7.73,6.95,9.28,9.27,1.54,2.32,2.32,5.03,2.32,8.11,0,5.8-1.15,10.15-3.48,13.04-2.32,2.9-5.03,4.35-8.11,4.35h-67.24c-8.5,0-17.01-3.28-25.51-9.85-8.5-6.57-14.88-14.1-19.13-22.61-10.82,12.37-22.9,22.31-36.23,29.85-13.33,7.53-27.73,11.3-43.19,11.3-21.26,0-38.64-3.29-52.17-9.85-13.53-6.56-24.15-15.45-31.88-26.66-7.74-11.2-13.04-24.63-15.94-40.28-2.9-15.65-4.35-32.36-4.35-50.14v-131h-11.59c-3.1,0-5.8-1.35-8.11-4.06-2.32-2.7-3.48-6.38-3.48-11.01,0-4.25,1.54-8.6,4.64-13.04,3.09-4.44,10.04-7.44,20.87-8.99l84.63-12.17c11.59-1.93,17.38,2.9,17.38,14.49v175.63c0,11.98,1.06,21.65,3.19,28.98,2.12,7.35,4.93,13.04,8.41,17.1,3.48,4.06,7.53,6.77,12.17,8.11,4.64,1.36,9.46,2.03,14.49,2.03,8.5,0,15.65-2.41,21.45-7.24,5.8-4.83,11.01-10.34,15.65-16.52v-173.31h-11.59c-3.1,0-5.8-1.35-8.11-4.06-2.32-2.7-3.48-6.38-3.48-11.01,0-4.25,1.54-8.6,4.63-13.04,3.09-4.44,10.05-7.44,20.87-8.99l84.63-12.17c11.6-1.93,17.39,2.9,17.39,14.49v239.97Z"/>
    <path class="cls-1" d="M702.14,853.81c0-3.09.77-5.8,2.32-8.11,1.54-2.32,4.64-5.41,9.28-9.27l11.59-9.28v-341.41h-11.59c-3.1,0-5.8-1.35-8.11-4.06-2.32-2.7-3.48-6.38-3.48-11.01,0-4.25,1.54-8.6,4.64-13.04,3.09-4.44,10.04-7.44,20.87-8.98l84.63-12.17c11.59-1.93,17.38,2.9,17.38,14.49v376.19l11.6,9.28c4.63,3.87,7.72,6.95,9.27,9.27,1.54,2.32,2.32,5.03,2.32,8.11,0,5.8-1.16,10.15-3.48,13.04-2.32,2.9-5.03,4.35-8.11,4.35h-127.52c-3.1,0-5.8-1.45-8.11-4.35-2.32-2.9-3.48-7.25-3.48-13.04Z"/>
    <path class="cls-1" d="M1027.33,845.68c-1.55-2.32-4.63-5.4-9.3-9.27l-11.59-9.27v-239.97c0-11.59-5.79-16.42-17.38-14.5l-84.62,12.18c-10.82,1.55-17.8,4.55-20.89,8.99-3.08,4.44-4.63,8.79-4.63,13.03,0,4.66,1.16,8.34,3.48,11.02,2.32,2.71,5.03,4.07,8.11,4.07h11.62v205.18l-11.62,9.27c-4.63,3.87-7.72,6.95-9.27,9.27-1.55,2.32-2.32,5.03-2.32,8.14,0,5.79,1.16,10.15,3.48,13.03,2.32,2.91,5.03,4.35,8.11,4.35h127.52c3.11,0,5.82-1.44,8.14-4.35,2.32-2.88,3.48-7.23,3.48-13.03,0-3.11-.79-5.82-2.32-8.14Z"/>
    <path class="cls-1" d="M1235.47,853.81c0-3.09.77-5.8,2.32-8.11,1.54-2.32,4.64-5.41,9.28-9.27l11.59-9.28v-139.11c0-26.66-2.9-45.3-8.7-55.94-5.79-10.62-15.46-15.94-28.98-15.94-6.19,0-11.69,2.52-16.52,7.53-4.83,5.03-8.79,11.4-11.88,19.13-3.09,7.74-5.42,16.23-6.95,25.5-1.55,9.27-2.32,18.17-2.32,26.66v132.16l11.6,9.28c4.63,3.87,7.72,6.95,9.27,9.27,1.54,2.32,2.32,5.03,2.32,8.11,0,5.8-1.16,10.15-3.48,13.04-2.32,2.9-5.03,4.35-8.11,4.35h-127.52c-3.1,0-5.8-1.45-8.11-4.35-2.32-2.9-3.48-7.25-3.48-13.04,0-3.09.77-5.8,2.32-8.11,1.54-2.32,4.64-5.41,9.28-9.27l11.59-9.28v-205.19h-11.59c-3.1,0-5.8-1.35-8.11-4.06-2.32-2.7-3.48-6.38-3.48-11.01,0-4.25,1.54-8.6,4.64-13.04,3.09-4.44,10.04-7.44,20.87-8.99l84.63-12.17c11.59-1.93,17.38,2.9,17.38,14.49v13.91c8.11-8.49,17.87-15.36,29.27-20.58,11.4-5.22,24.64-7.83,39.71-7.83,21.24,0,38.92,3.39,53.04,10.14,14.1,6.77,25.4,15.94,33.9,27.53,8.5,11.59,14.59,25.02,18.26,40.28,3.67,15.27,5.5,31.59,5.5,48.98v127.52l11.59,9.28c4.64,3.87,7.73,6.95,9.28,9.27,1.54,2.32,2.32,5.03,2.32,8.11,0,5.8-1.15,10.15-3.48,13.04-2.32,2.9-5.03,4.35-8.11,4.35h-127.52c-3.1,0-5.8-1.45-8.11-4.35-2.32-2.9-3.48-7.25-3.48-13.04Z"/>
  </g>
  <path class="cls-1" d="M969.36,415.59c-6.02,5.82-10.29,13.09-12.77,21.08,6.16.45,11.98,1.75,17.41,3.84,6.95,2.71,13.03,6.47,18.26,11.3,5.2,4.83,9.35,10.43,12.46,16.82,3.08,6.36,4.63,13.03,4.63,19.98s-1.55,13.62-4.63,20.01c-3.11,6.39-7.26,11.98-12.46,16.82-5.23,4.83-11.3,8.59-18.26,11.3-6.95,2.71-14.5,4.04-22.61,4.04s-15.66-1.33-22.61-4.04c-6.95-2.71-13.03-6.47-18.26-11.3-5.23-4.83-9.38-10.43-12.46-16.82-3.11-6.39-4.63-13.03-4.63-20.01s1.53-13.62,4.63-19.98c3.08-6.39,7.23-11.98,12.46-16.82,5.23-4.83,11.3-8.59,18.26-11.3,4.15-1.61,8.51-2.74,13.09-3.36,2.8-12.07,8.76-23.06,17.66-31.71,17.92-17.38,41.01-18.37,50.11-18.03,3.9.17,6.92,3.48,6.78,7.35-.17,3.93-3.5,6.92-7.35,6.78-7.26-.28-25.72.48-39.71,14.05Z"/>
</svg>