<?xml version="1.0" encoding="UTF-8"?>
<svg id="Layer_1" data-name="Layer 1" xmlns="http://www.w3.org/2000/svg" viewBox="0 0 1200 1200">
  <defs>
    <style>
      .cls-1 {
        fill: #fff;
      }
    </style>
  </defs>
  <g>
    <path class="cls-1" d="M158.64,835.35c15.54,0,26.44-1.77,32.69-5.32,6.25-3.55,9.38-7.35,9.38-11.4,0-2.71-.85-5.16-2.54-7.35-1.7-2.2-5.15-4.4-10.39-6.59-5.25-2.2-12.59-4.65-22.05-7.35-9.46-2.71-21.79-5.92-37-9.63-18.59-4.4-35.14-8.87-49.67-13.43-14.53-4.56-26.86-9.88-37-15.96-10.14-6.08-17.91-13.51-23.31-22.3-5.41-8.78-8.11-19.59-8.11-32.44,0-14.19,3.29-25.34,9.88-33.45,6.59-8.11,15.28-14.19,26.1-18.25-11.83-8.78-21.12-18.92-27.87-30.41-6.77-11.48-10.14-24.15-10.14-38.01s3.12-25.51,9.38-37c6.25-11.48,14.78-21.37,25.6-29.65,10.81-8.28,23.82-14.95,39.03-20.02,15.2-5.07,31.59-7.77,49.16-8.11,4.39-8.78,10.05-17.74,16.98-26.86,6.92-9.12,14.78-17.31,23.57-24.58,8.78-7.26,18.5-13.26,29.14-17.99,10.65-4.73,21.87-7.1,33.71-7.1,15.21,0,27.37,3.29,36.49,9.88,9.12,6.59,13.68,15.29,13.68,26.1,0,13.52-3.13,22.73-9.37,27.62-6.26,4.9-14.28,7.35-24.08,7.35-6.08,0-11.33-.76-15.71-2.28-4.4-1.52-8.79-3.12-13.18-4.81-4.4-1.69-8.79-3.3-13.18-4.82-4.4-1.52-9.63-2.28-15.71-2.28-19.26,0-33.28,6.76-42.06,20.27,16.89,1.01,32.35,4.14,46.37,9.38,14.02,5.24,26.11,12,36.24,20.27,10.14,8.28,18.07,17.91,23.82,28.89,5.74,10.98,8.62,22.9,8.62,35.73,0,13.52-3.3,26.02-9.88,37.51-6.59,11.49-15.64,21.46-27.12,29.9-11.49,8.45-25.09,15.04-40.8,19.77-15.71,4.74-32.87,7.1-51.44,7.1-9.81,0-17.74.18-23.82.51-6.09.34-10.9.94-14.44,1.78-3.55.85-5.92,1.77-7.1,2.79-1.19,1.02-1.78,2.2-1.78,3.55,0,1.7,1.52,3.3,4.57,4.82,3.04,1.52,8.02,3.22,14.95,5.07,6.92,1.86,16.05,3.8,27.37,5.83,11.32,2.03,25.09,4.39,41.31,7.1,34.47,5.75,60.07,16.14,76.79,31.17,16.72,15.03,25.09,31.84,25.09,50.43,0,13.18-3.89,24.91-11.66,35.22-7.78,10.3-18.25,18.92-31.42,25.85-13.18,6.92-28.47,12.24-45.87,15.96-17.41,3.72-35.74,5.58-54.99,5.58-46.63,0-81.09-5.75-103.4-17.23-22.3-11.49-33.45-26.36-33.45-44.6,0-9.8,3.63-17.49,10.9-23.06,7.26-5.57,15.79-8.36,25.6-8.36,11.49,0,21.62,2.86,30.41,8.62,8.78,5.74,17.65,12.08,26.61,19.01,8.95,6.92,18.5,13.26,28.64,19,10.14,5.74,22.3,8.62,36.49,8.62ZM125.2,526.69c-5.41,0-9.81,1.19-13.18,3.55-3.38,2.37-6.08,5.24-8.11,8.62-2.03,3.38-3.39,6.93-4.06,10.64-.68,3.72-1.02,6.93-1.02,9.63,0,4.74.93,11.74,2.79,21.03,1.85,9.3,4.81,18.5,8.87,27.62,4.06,9.12,9.38,17.07,15.96,23.82,6.59,6.76,14.61,10.14,24.08,10.14,6.09,0,10.9-1.18,14.45-3.55,3.55-2.36,6.16-5.15,7.85-8.36,1.69-3.21,2.79-6.67,3.29-10.39.51-3.71.76-6.92.76-9.63,0-5.07-.76-12.24-2.28-21.54-1.52-9.29-4.14-18.5-7.85-27.62-3.72-9.12-8.96-17.06-15.71-23.82-6.77-6.76-15.38-10.14-25.85-10.14Z"/>
    <path class="cls-1" d="M558.79,711.18l10.14,8.11c4.06,3.38,6.76,6.08,8.11,8.11,1.34,2.03,2.03,4.4,2.03,7.1,0,5.07-1.01,8.87-3.04,11.4-2.03,2.54-4.4,3.8-7.1,3.8h-58.79c-7.44,0-14.87-2.87-22.3-8.62-7.44-5.74-13.01-12.33-16.73-19.77-9.46,10.82-20.02,19.51-31.68,26.1-11.66,6.59-24.25,9.88-37.76,9.88-18.59,0-33.79-2.87-45.62-8.62-11.83-5.74-21.12-13.51-27.87-23.32-6.77-9.8-11.4-21.54-13.94-35.22-2.54-13.68-3.8-28.3-3.8-43.84v-114.55h-10.14c-2.71,0-5.07-1.18-7.1-3.55-2.03-2.36-3.04-5.58-3.04-9.63,0-3.72,1.34-7.52,4.06-11.4,2.7-3.88,8.78-6.5,18.25-7.86l74-10.64c10.14-1.69,15.2,2.54,15.2,12.67v153.57c0,10.48.93,18.93,2.79,25.34,1.85,6.42,4.31,11.4,7.35,14.95,3.04,3.55,6.59,5.92,10.64,7.1,4.06,1.19,8.28,1.77,12.67,1.77,7.43,0,13.69-2.1,18.75-6.33,5.07-4.22,9.63-9.04,13.69-14.45v-151.55h-10.14c-2.71,0-5.07-1.18-7.1-3.55-2.03-2.36-3.04-5.58-3.04-9.63,0-3.72,1.34-7.52,4.05-11.4,2.7-3.88,8.79-6.5,18.25-7.86l74-10.64c10.14-1.69,15.21,2.54,15.21,12.67v209.83Z"/>
    <path class="cls-1" d="M601.87,734.49c0-2.7.67-5.07,2.03-7.1,1.35-2.03,4.06-4.73,8.11-8.11l10.14-8.11v-298.53h-10.14c-2.71,0-5.07-1.18-7.1-3.55-2.03-2.36-3.04-5.58-3.04-9.63,0-3.71,1.34-7.52,4.06-11.4,2.7-3.88,8.78-6.5,18.25-7.86l74-10.64c10.14-1.69,15.2,2.53,15.2,12.67v328.94l10.14,8.11c4.05,3.38,6.75,6.08,8.11,8.11,1.35,2.03,2.03,4.4,2.03,7.1,0,5.07-1.02,8.87-3.04,11.4-2.03,2.54-4.4,3.8-7.1,3.8h-111.51c-2.71,0-5.07-1.27-7.1-3.8-2.03-2.53-3.04-6.34-3.04-11.4Z"/>
    <path class="cls-1" d="M886.22,727.39c-1.36-2.03-4.05-4.72-8.13-8.11l-10.13-8.11v-209.83c0-10.13-5.07-14.36-15.2-12.68l-73.99,10.65c-9.46,1.36-15.57,3.98-18.26,7.86-2.69,3.88-4.05,7.69-4.05,11.39,0,4.08,1.01,7.29,3.04,9.64,2.03,2.37,4.4,3.56,7.09,3.56h10.16v179.41l-10.16,8.11c-4.05,3.39-6.75,6.08-8.11,8.11-1.36,2.03-2.03,4.4-2.03,7.12,0,5.07,1.01,8.87,3.04,11.39,2.03,2.55,4.4,3.81,7.09,3.81h111.5c2.72,0,5.09-1.26,7.12-3.81,2.03-2.52,3.04-6.33,3.04-11.39,0-2.72-.69-5.09-2.03-7.12Z"/>
    <path class="cls-1" d="M1068.22,734.49c0-2.7.67-5.07,2.03-7.1,1.34-2.03,4.06-4.73,8.11-8.11l10.14-8.11v-121.64c0-23.32-2.54-39.61-7.61-48.91-5.07-9.29-13.52-13.94-25.34-13.94-5.41,0-10.22,2.2-14.45,6.59-4.23,4.4-7.69,9.97-10.39,16.73-2.71,6.76-4.74,14.19-6.08,22.3-1.36,8.11-2.03,15.89-2.03,23.32v115.56l10.14,8.11c4.05,3.38,6.75,6.08,8.11,8.11,1.35,2.03,2.03,4.4,2.03,7.1,0,5.07-1.02,8.87-3.04,11.4-2.03,2.54-4.4,3.8-7.1,3.8h-111.51c-2.71,0-5.07-1.27-7.1-3.8-2.03-2.53-3.04-6.34-3.04-11.4,0-2.7.67-5.07,2.03-7.1,1.35-2.03,4.06-4.73,8.11-8.11l10.14-8.11v-179.42h-10.14c-2.71,0-5.07-1.18-7.1-3.55-2.03-2.36-3.04-5.58-3.04-9.63,0-3.72,1.34-7.52,4.06-11.4,2.7-3.88,8.78-6.5,18.25-7.86l74-10.64c10.14-1.69,15.2,2.54,15.2,12.67v12.16c7.1-7.43,15.63-13.43,25.6-17.99,9.97-4.56,21.55-6.84,34.72-6.84,18.58,0,34.04,2.96,46.38,8.87,12.33,5.92,22.21,13.94,29.65,24.08,7.43,10.14,12.75,21.88,15.97,35.23,3.2,13.35,4.81,27.62,4.81,42.83v111.51l10.14,8.11c4.06,3.38,6.76,6.08,8.11,8.11,1.34,2.03,2.03,4.4,2.03,7.1,0,5.07-1.01,8.87-3.04,11.4-2.03,2.54-4.4,3.8-7.1,3.8h-111.5c-2.71,0-5.07-1.27-7.1-3.8-2.03-2.53-3.04-6.34-3.04-11.4Z"/>
  </g>
  <path class="cls-1" d="M835.53,351.31c-5.26,5.09-9,11.44-11.17,18.44,5.39.4,10.48,1.53,15.22,3.36,6.08,2.37,11.39,5.66,15.96,9.88,4.55,4.23,8.18,9.12,10.9,14.7,2.69,5.56,4.05,11.39,4.05,17.47s-1.36,11.91-4.05,17.5c-2.72,5.59-6.35,10.48-10.9,14.7-4.57,4.23-9.88,7.51-15.96,9.88-6.08,2.37-12.68,3.53-19.77,3.53s-13.69-1.16-19.77-3.53c-6.08-2.37-11.39-5.66-15.96-9.88-4.57-4.23-8.2-9.12-10.9-14.7-2.72-5.58-4.05-11.39-4.05-17.5s1.33-11.91,4.05-17.47c2.69-5.59,6.33-10.48,10.9-14.7,4.57-4.23,9.88-7.51,15.96-9.88,3.63-1.41,7.44-2.4,11.44-2.94,2.45-10.55,7.66-20.17,15.45-27.73,15.67-15.2,35.86-16.06,43.82-15.77,3.41.15,6.05,3.04,5.93,6.43-.15,3.44-3.06,6.05-6.43,5.93-6.35-.25-22.49.42-34.72,12.28Z"/>
</svg>