<?xml version="1.0" encoding="UTF-8"?>
<svg id="Layer_1" data-name="Layer 1" xmlns="http://www.w3.org/2000/svg" viewBox="0 0 1200 1200">
  <defs>
    <style>
      .cls-1 {
        fill: #fff;
      }
    </style>
  </defs>
  <g>
    <path class="cls-1" d="M863.17,613.75c-43.49-210.62-393.94-160.75-344.86,84.77,23.51,117.68,159.41,169.59,253,95.11l23.87-32.97v58.69c37.94-.77,69.4-6.42,73.43-49.36,3.69-39.35,2.46-118.03-5.43-156.24ZM672.83,752.92c-102.48-12.58-108.84-182.07,4.18-196.67,143.31-18.57,154.33,216.16-4.18,196.67Z"/>
    <path class="cls-1" d="M392.67,613.34c-13.94-42.22-62.35-62.5-104.08-57.1-120.48,15.59-108.96,216.82,35.39,196.77,34.46-4.79,54.5-31.08,73.42-56.92,20.08,2.44,74.47,6.11,66.36,35.32-13,46.82-82.65,89.97-128.91,94.82-133.27,13.98-223.98-70.23-205.64-205.83,20.82-153.96,250.91-189.37,324.46-58.91,3.22,5.71,11.73,19.7,11.65,25.05-.25,16.95-57.66,31.27-72.64,26.78Z"/>
    <path class="cls-1" d="M916.1,593.78c15.32-129.26,213.14-152.28,269.4-45.91,34.59,65.41,4.49,80.18-60.54,84.45,2.39-43.05-18.17-76.49-64.13-77.33-41.67-.76-63.26,26.1-67.32,64.92-5.95,56.86,4.84,120.14-2.09,177.63-7.07,22.48-54.33,32.7-75.32,29.15v-232.9Z"/>
    <path class="cls-1" d="M76.95,485.58v309.93C76.95,816.12,17.42,832.38,0,826.69v-306.26C0,497.12,57.26,480.5,76.95,485.58Z"/>
    <path class="cls-1" d="M76.95,371.88v60.52C76.95,454.26,17.37,467.85,0,467.25v-60.52C0,405.79,7.81,392.31,9.43,390.49c13.97-15.63,47.54-19.76,67.52-18.61Z"/>
  </g>
  <g>
    <path class="cls-1" d="M1131.24,371.7v6.62h11.57v26.46h6.62v-26.46h11.48v-6.62h-29.67Z"/>
    <path class="cls-1" d="M1193.62,371.7l-11.72,16.01-11.53-16.01h-6.6v33.08h6.6v-22.3l8.84,12.71h5.52l8.65-12.71v22.3h6.62v-33.08h-6.38Z"/>
  </g>
</svg>