<?xml version="1.0" encoding="UTF-8"?>
<svg id="Layer_1" data-name="Layer 1" xmlns="http://www.w3.org/2000/svg" viewBox="0 0 1400 1400">
  <defs>
    <style>
      .cls-1 {
        fill: #fff;
      }
    </style>
  </defs>
  <g>
    <path class="cls-1" d="M983.34,714.8c-46.82-226.76-424.14-173.08-371.3,91.27,25.32,126.7,171.63,182.6,272.4,102.41l25.7-35.5v63.19c40.85-.83,74.72-6.92,79.05-53.14,3.98-42.37,2.65-127.08-5.85-168.22ZM778.41,864.65c-110.34-13.55-117.18-196.02,4.5-211.75,154.29-19.99,166.16,232.73-4.5,211.75Z"/>
    <path class="cls-1" d="M476.77,714.36c-15.01-45.46-67.13-67.29-112.06-61.48-129.72,16.79-117.31,233.44,38.1,211.86,37.1-5.15,58.68-33.46,79.04-61.28,21.62,2.63,80.18,6.58,71.45,38.03-14,50.41-88.99,96.87-138.79,102.09-143.48,15.05-241.15-75.61-221.41-221.61,22.42-165.76,270.14-203.88,349.33-63.42,3.47,6.15,12.63,21.21,12.54,26.97-.27,18.25-62.08,33.66-78.21,28.84Z"/>
    <path class="cls-1" d="M1040.34,693.31c16.49-139.17,229.48-163.96,290.05-49.43,37.25,70.42,4.84,86.33-65.18,90.92,2.57-46.36-19.56-82.35-69.05-83.26-44.86-.82-68.11,28.1-72.48,69.9-6.4,61.22,5.22,129.35-2.25,191.25-7.61,24.2-58.5,35.21-81.09,31.38v-250.76Z"/>
    <path class="cls-1" d="M136.85,576.81v333.69c0,22.19-64.1,39.69-82.85,33.57v-329.74c0-25.1,61.65-42.99,82.85-37.52Z"/>
    <path class="cls-1" d="M136.85,454.39v65.16c0,23.53-64.15,38.17-82.85,37.52v-65.16c0-1.01,8.41-15.52,10.15-17.48,15.04-16.83,51.18-21.28,72.7-20.04Z"/>
  </g>
  <g>
    <path class="cls-1" d="M1271.97,454.2v7.13h12.46v28.49h7.13v-28.49h12.36v-7.13h-31.95Z"/>
    <path class="cls-1" d="M1339.13,454.2l-12.62,17.24-12.41-17.24h-7.1v35.62h7.1v-24.01l9.52,13.69h5.94l9.31-13.69v24.01h7.13v-35.62h-6.87Z"/>
  </g>
</svg>