<?xml version="1.0" encoding="UTF-8"?>
<svg id="Layer_1" data-name="Layer 1" xmlns="http://www.w3.org/2000/svg" viewBox="0 0 1200 1200">
  <defs>
    <style>
      .cls-1 {
        fill: #fff;
      }
    </style>
  </defs>
  <path class="cls-1" d="M1059.99,440.34l-314.76-205.25c-88.27-57.58-202.2-57.58-290.48,0l-314.76,205.25c-47.02,30.66-75.4,83.03-75.4,139.19v262.42c0,91.76,74.43,166.15,166.19,166.15h738.41c91.8,0,166.19-74.38,166.19-166.15v-262.42c0-56.15-28.38-108.53-75.4-139.19ZM668.29,821.07c1.14,4.91-2.6,9.62-7.63,9.62h-121.28c-5.08,0-8.81-4.71-7.63-9.62l37.19-159.57c-11.29-4.38-21.36-11.04-29.76-19.41-15.96-15.96-25.62-38.05-25.17-62.45.85-46.29,39.02-84.09,85.31-84.45,24.08-.16,45.8,9.46,61.55,25.21,15.55,15.55,25.17,37.11,25.17,60.86s-9.62,45.23-25.17,60.82c-8.45,8.4-18.56,15.02-29.88,19.41l37.31,159.57Z"/>
</svg>