<?xml version="1.0" encoding="UTF-8"?>
<svg id="Layer_1" data-name="Layer 1" xmlns="http://www.w3.org/2000/svg" viewBox="0 0 1400 1400">
  <defs>
    <style>
      .cls-1 {
        fill: #fff;
      }
    </style>
  </defs>
  <path class="cls-1" d="M1255.49,507.19l-380.1-247.86c-106.6-69.53-244.18-69.53-350.78,0l-380.1,247.86c-56.78,37.02-91.05,100.27-91.05,168.08v316.9c0,110.81,89.88,200.64,200.69,200.64h891.7c110.86,0,200.69-89.83,200.69-200.64v-316.9c0-67.81-34.27-131.06-91.05-168.08ZM782.47,966.97c1.37,5.93-3.14,11.62-9.22,11.62h-146.46c-6.13,0-10.64-5.69-9.22-11.62l44.91-192.7c-13.63-5.3-25.79-13.34-35.94-23.44-19.27-19.27-30.94-45.94-30.4-75.41,1.03-55.9,47.12-101.55,103.02-101.99,29.08-.2,55.31,11.42,74.33,30.45,18.78,18.78,30.4,44.82,30.4,73.5s-11.62,54.62-30.4,73.45c-10.2,10.15-22.41,18.14-36.09,23.44l45.06,192.7Z"/>
</svg>