<?xml version="1.0" encoding="UTF-8"?>
<svg id="Layer_1" data-name="Layer 1" xmlns="http://www.w3.org/2000/svg" viewBox="0 0 1400 1400">
  <defs>
    <style>
      .cls-1 {
        fill: #fff;
      }
    </style>
  </defs>
  <path class="cls-1" d="M726.5,562.45c-13.54-9.8-28.6-17.62-44.75-23.1-17.13-5.8-35.49-8.96-54.58-8.96-93.83,0-169.9,76.07-169.9,169.9s76.07,169.9,169.9,169.9c19.09,0,37.44-3.16,54.58-8.96,16.14-5.47,31.2-13.3,44.75-23.1,42.76-30.84,70.58-81.09,70.58-137.85s-27.82-107.01-70.58-137.85ZM634.79,836.55c-2.53.14-5.06.21-7.62.21-75.37,0-136.47-61.1-136.47-136.47s61.1-136.47,136.47-136.47c2.56,0,5.09.07,7.62.21,5.35.3,10.62.89,15.78,1.8-.47.14-.94.3-1.41.45-14.19,4.79-27.35,11.78-39.12,20.55-.19.14-.38.28-.56.42-34.23,25.83-56.37,66.83-56.37,113.04s22.14,87.21,56.37,113.04c.17.14.37.28.56.42,11.77,8.77,24.93,15.76,39.12,20.55.47.16.94.31,1.41.45-5.16.91-10.42,1.5-15.78,1.8ZM681.54,629.3l-5,29.67-5-29.67-29.65-4.99,29.65-5,5-29.65,5,29.65,29.65,5-29.65,4.99Z"/>
  <polygon class="cls-1" points="405.89 870.2 326.02 870.2 291.82 644.74 274.46 702.75 224.37 870.2 144.5 870.2 131.43 822.39 103.12 718.9 84.73 651.65 51.56 870.2 0 870.2 51.56 530.39 131.43 530.39 144.5 578.2 172.81 681.69 199.76 780.15 224.37 697.84 274.46 530.39 354.33 530.39 405.89 870.2"/>
  <polygon class="cls-1" points="1330.23 529.8 1330.23 869.61 1271.94 869.61 1108.7 663.51 1089.26 638.95 1089.26 869.61 1050.4 869.61 1050.4 529.8 1108.7 529.8 1271.94 735.65 1291.38 760.18 1291.38 529.8 1330.23 529.8"/>
  <path class="cls-1" d="M991.2,693.48c3.45,96.69-73.89,176.13-169.78,176.13-9.75,0-19.27-.82-28.57-2.39,47.61-40.22,77.82-100.33,77.82-167.53s-30.21-127.28-77.82-167.5c9.33-1.57,18.89-2.39,28.68-2.39,90.81.06,166.42,72.92,169.66,163.67Z"/>
  <path class="cls-1" d="M1368.07,561.02c-3.57-3.47-5.35-7.71-5.35-12.71s1.78-9.24,5.35-12.71c3.57-3.47,8-5.21,13.29-5.21s9.72,1.74,13.29,5.21c3.57,3.47,5.35,7.71,5.35,12.71s-1.78,9.24-5.35,12.71c-3.57,3.47-8,5.21-13.29,5.21s-9.72-1.73-13.29-5.21ZM1371.26,538.41c-2.63,2.6-3.95,5.9-3.95,9.9s1.32,7.3,3.95,9.9c2.63,2.6,6,3.9,10.1,3.9s7.46-1.3,10.1-3.9c2.63-2.6,3.95-5.9,3.95-9.9s-1.32-7.3-3.95-9.9c-2.63-2.6-6-3.9-10.1-3.9s-7.46,1.3-10.1,3.9ZM1375.21,554.7c-1.71-1.71-2.57-3.84-2.57-6.39s.86-4.68,2.57-6.39c1.71-1.71,3.84-2.57,6.39-2.57,2.91,0,5.23,1.13,6.97,3.39.77,1.03,1.36,2.16,1.74,3.39h-5.08c-.16-.32-.44-.68-.82-1.07-.81-.74-1.74-1.11-2.81-1.11-1.26,0-2.26.39-3,1.16-.74.77-1.11,1.84-1.11,3.2s.37,2.42,1.11,3.2c.74.77,1.74,1.16,3,1.16s2.19-.35,2.91-1.07c.35-.36.6-.73.73-1.11h5.08c-.39,1.23-.97,2.36-1.74,3.39-1.74,2.26-4.07,3.39-6.97,3.39-2.55,0-4.68-.86-6.39-2.57Z"/>
</svg>