<?xml version="1.0" encoding="UTF-8"?>
<svg id="Layer_1" data-name="Layer 1" xmlns="http://www.w3.org/2000/svg" viewBox="0 0 1200 1200">
  <defs>
    <style>
      .cls-1 {
        fill: #fff;
      }
    </style>
  </defs>
  <path class="cls-1" d="M622.71,482.1c-11.61-8.4-24.52-15.11-38.35-19.8-14.69-4.98-30.42-7.68-46.78-7.68-80.43,0-145.63,65.2-145.63,145.63s65.2,145.63,145.63,145.63c16.36,0,32.09-2.7,46.78-7.68,13.84-4.69,26.74-11.4,38.35-19.8,36.65-26.43,60.5-69.51,60.5-118.15s-23.85-91.72-60.5-118.15ZM544.11,717.05c-2.17.12-4.33.18-6.53.18-64.6,0-116.97-52.37-116.97-116.97s52.37-116.97,116.97-116.97c2.2,0,4.36.06,6.53.18,4.59.25,9.1.76,13.52,1.54-.4.12-.81.25-1.21.39-12.16,4.11-23.44,10.1-33.53,17.62-.16.12-.33.24-.48.36-29.34,22.14-48.32,57.28-48.32,96.89s18.97,74.75,48.32,96.89c.15.12.31.24.48.36,10.09,7.52,21.37,13.51,33.53,17.62.4.13.81.27,1.21.39-4.42.78-8.93,1.28-13.52,1.54ZM584.18,539.4l-4.29,25.43-4.29-25.43-25.41-4.27,25.41-4.29,4.29-25.41,4.29,25.41,25.41,4.29-25.41,4.27Z"/>
  <polygon class="cls-1" points="347.9 745.88 279.44 745.88 250.13 552.64 235.25 602.36 192.32 745.88 123.86 745.88 112.65 704.9 88.39 616.2 72.63 558.56 44.19 745.88 0 745.88 44.19 454.62 112.65 454.62 123.86 495.6 148.13 584.31 171.22 668.7 192.32 598.15 235.25 454.62 303.71 454.62 347.9 745.88"/>
  <polygon class="cls-1" points="1140.2 454.12 1140.2 745.38 1090.23 745.38 950.31 568.72 933.65 547.67 933.65 745.38 900.35 745.38 900.35 454.12 950.31 454.12 1090.23 630.55 1106.9 651.58 1106.9 454.12 1140.2 454.12"/>
  <path class="cls-1" d="M849.6,594.41c2.95,82.87-63.33,150.97-145.52,150.97-8.36,0-16.52-.71-24.48-2.05,40.81-34.47,66.71-86,66.71-143.59s-25.9-109.1-66.71-143.57c8-1.35,16.19-2.05,24.59-2.05,77.83.05,142.65,62.51,145.42,140.29Z"/>
  <path class="cls-1" d="M1172.63,480.87c-3.06-2.97-4.59-6.61-4.59-10.89s1.53-7.92,4.59-10.89c3.06-2.97,6.85-4.46,11.39-4.46s8.33,1.49,11.39,4.46c3.06,2.97,4.59,6.61,4.59,10.89s-1.53,7.92-4.59,10.89c-3.06,2.97-6.85,4.46-11.39,4.46s-8.34-1.49-11.39-4.46ZM1175.37,461.49c-2.26,2.23-3.38,5.06-3.38,8.49s1.13,6.26,3.38,8.49c2.25,2.23,5.14,3.34,8.65,3.34s6.4-1.11,8.65-3.34c2.25-2.23,3.38-5.06,3.38-8.49s-1.13-6.26-3.38-8.49c-2.26-2.23-5.14-3.34-8.65-3.34s-6.4,1.11-8.65,3.34ZM1178.75,475.46c-1.47-1.47-2.2-3.29-2.2-5.48s.73-4.01,2.2-5.48c1.47-1.47,3.29-2.2,5.48-2.2,2.49,0,4.48.97,5.98,2.91.66.89,1.16,1.85,1.49,2.9h-4.36c-.14-.28-.37-.58-.71-.91-.69-.64-1.49-.95-2.41-.95-1.08,0-1.94.33-2.57,1-.64.66-.95,1.58-.95,2.74s.32,2.08.95,2.74c.64.66,1.49,1,2.57,1s1.88-.3,2.49-.91c.3-.3.51-.62.62-.95h4.36c-.33,1.05-.83,2.02-1.49,2.9-1.49,1.94-3.49,2.91-5.98,2.91-2.19,0-4.01-.73-5.48-2.2Z"/>
</svg>