<?xml version="1.0" encoding="UTF-8"?>
<svg id="Layer_1" data-name="Layer 1" xmlns="http://www.w3.org/2000/svg" viewBox="0 0 1400 1400">
  <defs>
    <style>
      .cls-1 {
        fill: #fff;
      }
    </style>
  </defs>
  <polygon class="cls-1" points="1162.23 649.7 619.13 1192.81 619.13 789.1 619.09 606.31 237.77 987.63 237.77 750.3 780.87 207.19 780.91 793.69 1162.23 412.37 1162.23 649.7"/>
  <path class="cls-1" d="M1037.7,1089.96c-30.59,0-55.48-24.89-55.48-55.48s24.89-55.48,55.48-55.48,55.48,24.89,55.48,55.48-24.89,55.48-55.48,55.48ZM1037.7,990.19c-24.42,0-44.29,19.87-44.29,44.29s19.87,44.29,44.29,44.29,44.29-19.87,44.29-44.29-19.87-44.29-44.29-44.29Z"/>
  <path class="cls-1" d="M1053.58,1027.59c-1.17-3.06-3.11-5.5-5.82-7.31-2.7-1.81-5.92-2.72-9.64-2.72-2.5,0-4.77.42-6.81,1.26-2.04.84-3.79,2.02-5.24,3.52-1.45,1.51-2.59,3.29-3.41,5.36-.81,2.07-1.23,4.33-1.23,6.77s.41,4.71,1.23,6.77c.81,2.07,1.95,3.86,3.41,5.4s3.2,2.72,5.24,3.56c2.04.84,4.31,1.26,6.81,1.26,3.72,0,6.94-.92,9.64-2.75,2.7-1.84,4.64-4.28,5.82-7.35h10.33c-.71,2.86-1.85,5.46-3.41,7.8-1.56,2.35-3.44,4.36-5.66,6.05-2.22,1.68-4.75,2.98-7.58,3.9-2.83.92-5.88,1.38-9.14,1.38-3.93,0-7.51-.65-10.75-1.95-3.24-1.3-6.04-3.11-8.42-5.43-2.37-2.32-4.21-5.06-5.51-8.23-1.3-3.16-1.95-6.63-1.95-10.41s.65-7.18,1.95-10.37c1.3-3.19,3.13-5.94,5.51-8.27,2.37-2.32,5.18-4.13,8.42-5.43,3.24-1.3,6.82-1.95,10.75-1.95,3.26,0,6.31.46,9.14,1.38,2.83.92,5.36,2.22,7.58,3.9,2.22,1.68,4.1,3.7,5.66,6.04,1.56,2.35,2.69,4.95,3.41,7.81h-10.33Z"/>
</svg>