<?xml version="1.0" encoding="UTF-8"?>
<svg id="Layer_1" data-name="Layer 1" xmlns="http://www.w3.org/2000/svg" viewBox="0 0 1200 1200">
  <defs>
    <style>
      .cls-1 {
        fill: #fff;
      }
    </style>
  </defs>
  <polygon class="cls-1" points="982.77 558.35 533.03 1008.09 533.03 673.78 533 522.42 217.23 838.19 217.23 641.65 666.97 191.91 667 677.58 982.77 361.81 982.77 558.35"/>
  <path class="cls-1" d="M879.64,922.92c-25.33,0-45.94-20.61-45.94-45.94s20.61-45.94,45.94-45.94,45.94,20.61,45.94,45.94-20.61,45.94-45.94,45.94ZM879.64,840.3c-20.22,0-36.67,16.45-36.67,36.67s16.45,36.67,36.67,36.67,36.67-16.45,36.67-36.67-16.45-36.67-36.67-36.67Z"/>
  <path class="cls-1" d="M892.79,871.28c-.97-2.53-2.58-4.55-4.82-6.05-2.24-1.5-4.9-2.25-7.98-2.25-2.07,0-3.95.35-5.64,1.05-1.69.7-3.14,1.67-4.34,2.91-1.2,1.25-2.15,2.73-2.82,4.44-.67,1.71-1.02,3.58-1.02,5.61s.34,3.9,1.02,5.61c.67,1.71,1.62,3.2,2.82,4.47s2.65,2.25,4.34,2.95c1.69.7,3.57,1.05,5.64,1.05,3.08,0,5.74-.76,7.98-2.28,2.24-1.52,3.84-3.55,4.82-6.08h8.55c-.59,2.37-1.53,4.52-2.82,6.46-1.29,1.94-2.85,3.61-4.69,5.01-1.84,1.39-3.93,2.47-6.28,3.23-2.34.76-4.87,1.14-7.57,1.14-3.26,0-6.22-.54-8.91-1.62-2.68-1.08-5.01-2.58-6.97-4.5-1.97-1.92-3.49-4.19-4.56-6.81-1.08-2.62-1.62-5.49-1.62-8.62s.54-5.95,1.62-8.59c1.08-2.64,2.6-4.92,4.56-6.84,1.96-1.92,4.29-3.42,6.97-4.5,2.68-1.08,5.65-1.62,8.91-1.62,2.7,0,5.23.38,7.57,1.14,2.35.76,4.44,1.84,6.28,3.23,1.84,1.4,3.4,3.06,4.69,5.01,1.29,1.94,2.23,4.1,2.82,6.46h-8.55Z"/>
</svg>