<?xml version="1.0" encoding="UTF-8"?>
<svg id="Layer_1" data-name="Layer 1" xmlns="http://www.w3.org/2000/svg" viewBox="0 0 1200 1200">
  <defs>
    <style>
      .cls-1 {
        fill: #fff;
      }

      .cls-2 {
        opacity: .9;
      }
    </style>
  </defs>
  <g class="cls-2">
    <path class="cls-1" d="M1049.66,526.51l-253.48-253.46c-108.19-108.19-284.17-108.19-392.36,0l-253.53,253.51c-45.53,45.53-70.62,106.13-70.62,170.57v78.46c0,6.58.27,13.16.87,19.68,4.86,57.06,30.87,111.01,73.02,150.34,43.56,40.63,99.23,62.5,158.35,62.5,5.53,0,11.13-.2,16.7-.58,116.8-8.08,209.56-102.39,215.74-219.37.16-3.42.29-6.83.29-10.25,33.67,29.7,63.95,57.17,95.36,85.69,27.4,24.85,55.18,50.3,82.82,75.82,38.48,38.79,90.55,64.13,148.57,68.12,5.57.38,11.17.58,16.7.58,59.12,0,114.79-21.87,158.35-62.5,42.15-39.33,68.16-93.28,73.02-150.34.6-6.51.87-13.09.87-19.68v-78.46c0-64.45-25.09-125.04-70.67-170.62ZM1037.04,775.58c0,41.81-16.86,80.56-47.41,109.1-30.58,28.52-70.47,42.62-112.48,39.73-33.51-2.31-63.91-15.71-87.66-36.51-3.29-2.84-6.42-5.86-9.45-9-23.93-24.98-39.26-58.33-41.19-95.18-3.34-62.72,33.2-121.28,90.9-145.66l-7.28-17.17c-14.59-34.54-58.87-45.44-87.14-20.77-47.39,41.37-76.87,101.04-79.76,165.2-35.84-32.35-72.77-65.23-117.47-103.48-24.15-20.64-48.64-41.23-72.71-61.15l-.04.07c-.18-.16-.36-.31-.56-.47-28.27-24.76-72.66-13.99-87.3,20.64l-7.25,17.15c57.71,24.38,94.24,82.94,90.9,145.66-3.96,75.03-63.39,135.52-138.29,140.69-41.97,2.93-81.91-11.21-112.48-39.73-30.55-28.54-47.41-67.29-47.41-109.1v-78.46c0-42.22,16.41-81.86,46.25-111.68l253.51-253.53c75.68-75.7,198.89-75.7,274.57,0l253.48,253.51c29.86,29.82,46.27,69.5,46.27,111.7v78.46Z"/>
  </g>
  <g class="cls-2">
    <path class="cls-1" d="M1025.02,345.54c-8.01,8.01-17.74,12.02-29.19,12.02s-21.18-4.01-29.19-12.02c-8.01-8.01-12.02-17.74-12.02-29.19s4.01-21.18,12.02-29.19c8.01-8.01,17.74-12.02,29.19-12.02s21.39,3.96,29.32,11.89c7.93,7.93,11.89,17.7,11.89,29.31s-4.01,21.18-12.02,29.19ZM974.59,337.59c5.85,5.85,12.93,8.78,21.24,8.78s15.39-2.92,21.24-8.78c5.85-5.85,8.78-12.93,8.78-21.24s-2.93-15.39-8.78-21.24c-5.85-5.85-12.93-8.78-21.24-8.78s-15.39,2.92-21.24,8.78c-5.85,5.85-8.78,12.93-8.78,21.24s2.93,15.39,8.78,21.24ZM995.19,340.77c-6.53,0-12.15-2.35-16.85-7.06-4.71-4.71-7.06-10.41-7.06-17.11s2.33-12.4,6.99-17.11c4.66-4.71,10.3-7.06,16.92-7.06,4.41,0,8.48,1.12,12.21,3.37,3.73,2.25,6.61,5.24,8.65,8.97l-8.9,5.09c-1.19-2.2-2.84-3.96-4.96-5.28-2.12-1.32-4.45-1.97-7-1.97-3.73,0-6.93,1.36-9.6,4.07-2.67,2.71-4.01,6.02-4.01,9.92s1.33,7.21,4.01,9.92c2.67,2.71,5.87,4.07,9.6,4.07,2.63,0,5.02-.7,7.19-2.1s3.79-3.24,4.9-5.53l9.16,4.71c-2.03,3.9-4.96,7.06-8.78,9.48-3.82,2.42-7.97,3.63-12.46,3.63Z"/>
  </g>
</svg>