<?xml version="1.0" encoding="UTF-8"?>
<svg id="Layer_1" data-name="Layer 1" xmlns="http://www.w3.org/2000/svg" viewBox="0 0 1080 1080">
  <defs>
    <style>
      .cls-1 {
        fill: #fff;
      }

      .cls-2 {
        opacity: .9;
      }
    </style>
  </defs>
  <g class="cls-2">
    <path class="cls-1" d="M1006.66,463.73l-263.07-263.04c-112.27-112.27-294.92-112.27-407.19,0L73.29,463.78C26.04,511.03,0,573.91,0,640.8v81.42C0,729.05.28,735.88.91,742.64c5.04,59.22,32.04,115.2,75.78,156.02,45.21,42.16,102.98,64.86,164.33,64.86,5.74,0,11.55-.21,17.33-.6,121.22-8.39,217.49-106.26,223.9-227.66.16-3.55.3-7.09.3-10.64,34.94,30.83,66.37,59.33,98.96,88.93,28.43,25.79,57.26,52.2,85.95,78.68,39.93,40.26,93.97,66.56,154.18,70.69,5.78.39,11.59.6,17.33.6,61.35,0,119.13-22.7,164.33-64.86,43.74-40.82,70.74-96.8,75.78-156.02.63-6.76.91-13.59.91-20.42v-81.42c0-66.88-26.04-129.77-73.34-177.07ZM993.56,722.22c0,43.4-17.49,83.61-49.2,113.23-31.73,29.6-73.13,44.23-116.73,41.23-34.78-2.39-66.32-16.31-90.97-37.89-3.41-2.95-6.67-6.09-9.8-9.34-24.83-25.93-40.75-60.54-42.74-98.78-3.46-65.09,34.45-125.86,94.34-151.16l-7.55-17.82c-15.15-35.85-61.1-47.16-90.44-21.56-49.18,42.93-79.77,104.86-82.77,171.44-37.19-33.57-75.52-67.69-121.92-107.4-25.07-21.42-50.48-42.79-75.45-63.47l-.05.07c-.19-.16-.37-.33-.58-.49-29.34-25.69-75.41-14.52-90.6,21.42l-7.53,17.79c59.89,25.3,97.8,86.07,94.34,151.16-4.11,77.87-65.79,140.64-143.52,146.01-43.56,3.04-85-11.64-116.73-41.23-31.71-29.62-49.2-69.83-49.2-113.23v-81.42c0-43.81,17.03-84.96,47.99-115.9l263.09-263.11c78.54-78.57,206.41-78.57,284.95,0l263.07,263.09c30.99,30.94,48.02,72.13,48.02,115.92v81.42Z"/>
  </g>
  <g class="cls-2">
    <path class="cls-1" d="M981.08,275.92c-8.32,8.31-18.41,12.47-30.29,12.47s-21.98-4.16-30.29-12.47c-8.32-8.32-12.47-18.41-12.47-30.29s4.16-21.98,12.47-30.29c8.32-8.31,18.41-12.47,30.29-12.47s22.2,4.11,30.43,12.34c8.23,8.23,12.34,18.37,12.34,30.42s-4.16,21.98-12.47,30.29ZM928.75,267.67c6.07,6.07,13.42,9.11,22.04,9.11s15.97-3.03,22.04-9.11c6.07-6.07,9.11-13.42,9.11-22.04s-3.04-15.97-9.11-22.04c-6.07-6.07-13.42-9.11-22.04-9.11s-15.97,3.03-22.04,9.11c-6.07,6.07-9.11,13.42-9.11,22.04s3.04,15.97,9.11,22.04ZM950.13,270.97c-6.78,0-12.6-2.44-17.49-7.33-4.88-4.88-7.32-10.8-7.32-17.75s2.42-12.87,7.26-17.75c4.84-4.89,10.69-7.33,17.56-7.33,4.57,0,8.8,1.17,12.67,3.5,3.87,2.33,6.86,5.44,8.98,9.31l-9.24,5.28c-1.23-2.29-2.95-4.11-5.15-5.48-2.2-1.36-4.62-2.05-7.26-2.05-3.87,0-7.19,1.41-9.97,4.22-2.77,2.82-4.16,6.25-4.16,10.29s1.39,7.48,4.16,10.3c2.77,2.82,6.09,4.22,9.97,4.22,2.73,0,5.21-.73,7.46-2.18s3.94-3.37,5.08-5.74l9.5,4.88c-2.11,4.05-5.15,7.33-9.11,9.83-3.96,2.51-8.27,3.76-12.94,3.76Z"/>
  </g>
</svg>