<?xml version="1.0" encoding="UTF-8"?>
<svg id="Layer_1" data-name="Layer 1" xmlns="http://www.w3.org/2000/svg" viewBox="0 0 1400 1400">
  <defs>
    <style>
      .cls-1 {
        fill: #fff;
      }

      .cls-2 {
        opacity: .9;
      }
    </style>
  </defs>
  <g class="cls-2">
    <path class="cls-1" d="M1243.01,611.25l-306.11-306.08c-130.64-130.64-343.17-130.64-473.81,0l-306.16,306.13c-54.98,54.98-85.29,128.16-85.29,205.98v94.75c0,7.95.32,15.89,1.05,23.76,5.87,68.9,37.28,134.05,88.18,181.54,52.6,49.06,119.83,75.47,191.22,75.47,6.68,0,13.43-.24,20.17-.7,141.05-9.76,253.07-123.64,260.53-264.91.19-4.14.35-8.24.35-12.38,40.66,35.87,77.23,69.04,115.16,103.48,33.09,30.01,66.63,60.74,100.02,91.56,46.47,46.85,109.34,77.45,179.41,82.26,6.73.46,13.49.7,20.17.7,71.39,0,138.62-26.41,191.22-75.47,50.9-47.49,82.31-112.64,88.18-181.54.73-7.87,1.05-15.81,1.05-23.76v-94.75c0-77.82-30.3-151-85.34-206.04ZM1227.77,912.03c0,50.5-20.35,97.29-57.25,131.75-36.93,34.44-85.1,51.47-135.83,47.98-40.47-2.78-77.18-18.98-105.86-44.09-3.97-3.43-7.76-7.08-11.41-10.87-28.9-30.17-47.41-70.44-49.74-114.94-4.03-75.74,40.09-146.46,109.78-175.89l-8.79-20.73c-17.62-41.71-71.09-54.87-105.23-25.09-57.23,49.95-92.83,122.02-96.31,199.49-43.28-39.06-87.88-78.77-141.86-124.97-29.17-24.92-58.74-49.79-87.8-73.85l-.05.08c-.22-.19-.43-.38-.68-.57-34.14-29.9-87.74-16.89-105.42,24.92l-8.76,20.71c69.69,29.44,113.8,100.15,109.78,175.89-4.78,90.61-76.55,163.65-167,169.89-50.68,3.54-98.91-13.54-135.83-47.98-36.9-34.47-57.25-81.26-57.25-131.75v-94.75c0-50.98,19.81-98.85,55.85-134.86l306.13-306.16c91.39-91.42,240.18-91.42,331.57,0l306.11,306.13c36.06,36.01,55.87,83.93,55.87,134.89v94.75Z"/>
  </g>
  <g class="cls-2">
    <path class="cls-1" d="M1213.25,392.71c-9.68,9.67-21.43,14.51-35.25,14.51s-25.57-4.84-35.25-14.51c-9.68-9.68-14.51-21.43-14.51-35.25s4.84-25.57,14.51-35.25c9.68-9.67,21.43-14.51,35.25-14.51s25.83,4.79,35.4,14.36c9.57,9.57,14.36,21.37,14.36,35.4s-4.84,25.57-14.51,35.25ZM1152.35,383.11c7.06,7.07,15.61,10.6,25.65,10.6s18.58-3.53,25.65-10.6c7.06-7.07,10.6-15.61,10.6-25.65s-3.53-18.58-10.6-25.65c-7.07-7.07-15.62-10.6-25.65-10.6s-18.58,3.53-25.65,10.6c-7.07,7.07-10.6,15.61-10.6,25.65s3.53,18.58,10.6,25.65ZM1177.23,386.95c-7.88,0-14.67-2.84-20.35-8.53-5.68-5.68-8.52-12.57-8.52-20.66s2.82-14.97,8.45-20.66c5.63-5.68,12.44-8.53,20.43-8.53,5.32,0,10.24,1.36,14.74,4.07,4.5,2.71,7.99,6.32,10.44,10.83l-10.75,6.14c-1.44-2.66-3.43-4.79-5.99-6.37-2.56-1.59-5.38-2.38-8.45-2.38-4.51,0-8.37,1.64-11.6,4.91-3.23,3.28-4.84,7.27-4.84,11.98s1.61,8.71,4.84,11.98c3.23,3.28,7.09,4.91,11.6,4.91,3.17,0,6.07-.84,8.68-2.53s4.58-3.92,5.91-6.68l11.06,5.68c-2.46,4.71-5.99,8.53-10.6,11.44-4.61,2.92-9.63,4.38-15.05,4.38Z"/>
  </g>
</svg>