<?xml version="1.0" encoding="UTF-8"?>
<svg id="Layer_1" data-name="Layer 1" xmlns="http://www.w3.org/2000/svg" viewBox="0 0 1200 1200">
  <defs>
    <style>
      .cls-1 {
        fill: #fff;
      }
    </style>
  </defs>
  <path class="cls-1" d="M1200,419.92l-36.79,64.33-9,15.59-77.22,134.8-79.86-45.78,40.43-70.53-204.73,55.62-92,24.99-313.1,85.03v-95.42l313.1-84.94v-32.68c0-103.11-83.91-187.02-187.02-187.02s-186.96,83.91-186.96,187.02v258.14c0,103.14,83.91,187.02,186.96,187.02s187.02-83.88,187.02-187.02v-68.19l92-26.14v94.34c0,153.84-125.12,279.02-279.02,279.02s-279.02-125.18-279.02-279.02v-3.58l-250.64,68.1L0,704.76l274.79-74.63v-159.2c0-153.84,125.18-279.02,279.02-279.02s279.02,125.18,279.02,279.02v7.66l185.56-50.39-73.42-38.69,42.89-81.42,130.66,68.85,30.19,15.87,51.29,27.11Z"/>
</svg>