<?xml version="1.0" encoding="UTF-8"?>
<svg id="Layer_1" data-name="Layer 1" xmlns="http://www.w3.org/2000/svg" viewBox="0 0 1400 1400">
  <defs>
    <style>
      .cls-1 {
        fill: #fff;
      }
    </style>
  </defs>
  <path class="cls-1" d="M1400,489.91l-42.92,75.05-10.49,18.19-90.09,157.26-93.17-53.41,47.17-82.28-238.85,64.89-107.33,29.16-365.29,99.2v-111.33l365.29-99.09v-38.13c0-120.3-97.89-218.19-218.19-218.19s-218.12,97.89-218.12,218.19v301.16c0,120.33,97.89,218.19,218.12,218.19s218.19-97.86,218.19-218.19v-79.56l107.33-30.5v110.06c0,179.48-145.97,325.53-325.53,325.53s-325.53-146.04-325.53-325.53v-4.18L28.18,925.85,0,822.22l320.59-87.07v-185.73c0-179.48,146.04-325.53,325.53-325.53s325.53,146.04,325.53,325.53v8.93l216.49-58.79-85.66-45.13,50.04-94.99,152.43,80.32,35.22,18.52,59.84,31.63Z"/>
</svg>