<?xml version="1.0" encoding="UTF-8"?>
<svg id="Layer_1" data-name="Layer 1" xmlns="http://www.w3.org/2000/svg" viewBox="0 0 1400 1400">
  <defs>
    <style>
      .cls-1 {
        fill: #fff;
      }
    </style>
  </defs>
  <g>
    <path class="cls-1" d="M110.74,653.86h0c0,10.19-8.26,18.46-18.46,18.46h-27.68v73.82h-18.46v-73.82h-27.68c-10.19,0-18.46-8.26-18.46-18.46h0s110.74,0,110.74,0Z"/>
    <rect class="cls-1" x="156.89" y="653.86" width="18.46" height="73.82"/>
    <rect class="cls-1" x="239.94" y="653.86" width="18.46" height="73.82"/>
    <path class="cls-1" d="M258.4,727.68h0c0,10.19-8.26,18.46-18.46,18.46h-64.59c-10.19,0-18.46-8.26-18.46-18.46h0s101.51,0,101.51,0Z"/>
    <path class="cls-1" d="M539.23,653.86v55.37h-83.05v36.91h-18.45v-55.37h83.05v-18.45h-64.59c-10.19,0-18.46-8.26-18.46-18.46h0s101.5,0,101.5,0Z"/>
    <polygon class="cls-1" points="686.89 690.77 686.89 746.14 668.43 746.14 668.43 709.23 603.84 709.23 603.84 746.14 585.38 746.14 585.38 690.77 686.89 690.77"/>
    <path class="cls-1" d="M686.89,653.86h0c0,10.19-8.26,18.46-18.46,18.46h-64.59c-10.19,0-18.46-8.26-18.46-18.46h0s101.51,0,101.51,0Z"/>
    <path class="cls-1" d="M825.32,653.86h0c0,10.19-8.26,18.46-18.46,18.46h-55.37v73.82h-18.45v-92.28h92.28Z"/>
    <path class="cls-1" d="M396.83,727.68h0c0,10.19-8.26,18.46-18.46,18.46h-73.82v-92.28h18.45v73.82h73.83Z"/>
  </g>
  <path class="cls-1" d="M961.61,690.77h0c0,10.19-8.26,18.46-18.46,18.46h-64.59c-10.19,0-18.46-8.26-18.46-18.46h0s101.51,0,101.51,0Z"/>
  <g>
    <rect class="cls-1" x="1089.58" y="690.77" width="18.46" height="55.37"/>
    <rect class="cls-1" x="1006.53" y="653.86" width="18.46" height="55.37"/>
    <rect class="cls-1" x="1150.24" y="653.86" width="18.46" height="55.37"/>
    <rect class="cls-1" x="1381.54" y="690.77" width="18.46" height="55.37"/>
    <path class="cls-1" d="M1006.53,653.86h101.51v10.54c0,4.37-3.55,7.92-7.92,7.92h-93.59v-18.46h0Z"/>
    <rect class="cls-1" x="1006.53" y="690.77" width="101.51" height="18.46"/>
    <rect class="cls-1" x="1233.56" y="690.77" width="18.46" height="55.37"/>
    <path class="cls-1" d="M1150.5,653.86h101.51v10.54c0,4.37-3.55,7.92-7.92,7.92h-93.59v-18.46h0Z"/>
    <rect class="cls-1" x="1150.5" y="690.77" width="101.51" height="18.46"/>
    <rect class="cls-1" x="1297.96" y="653.86" width="18.46" height="55.37" transform="translate(2614.39 1363.09) rotate(180)"/>
    <path class="cls-1" d="M1297.96,727.68h93.59c4.37,0,7.92,3.55,7.92,7.92v10.54h-101.51v-18.46h0Z" transform="translate(2697.44 1473.82) rotate(180)"/>
    <rect class="cls-1" x="1297.96" y="690.77" width="101.51" height="18.46" transform="translate(2697.44 1400) rotate(180)"/>
  </g>
</svg>