<?xml version="1.0" encoding="UTF-8"?>
<svg id="Layer_1" data-name="Layer 1" xmlns="http://www.w3.org/2000/svg" viewBox="0 0 1200 1200">
  <defs>
    <style>
      .cls-1 {
        fill: #fff;
      }
    </style>
  </defs>
  <g>
    <path class="cls-1" d="M94.92,560.45h0c0,8.74-7.08,15.82-15.82,15.82h-23.73v63.27h-15.82v-63.27H15.82C7.08,576.27,0,569.19,0,560.45H0s94.92,0,94.92,0Z"/>
    <rect class="cls-1" x="134.48" y="560.45" width="15.82" height="63.27"/>
    <rect class="cls-1" x="205.67" y="560.45" width="15.82" height="63.27"/>
    <path class="cls-1" d="M221.49,623.73h0c0,8.74-7.08,15.82-15.82,15.82h-55.37c-8.74,0-15.82-7.08-15.82-15.82h0s87.01,0,87.01,0Z"/>
    <path class="cls-1" d="M462.2,560.45v47.46h-71.19v31.64h-15.81v-47.46h71.19v-15.81h-55.37c-8.74,0-15.82-7.08-15.82-15.82h0s87,0,87,0Z"/>
    <polygon class="cls-1" points="588.77 592.09 588.77 639.55 572.94 639.55 572.94 607.91 517.58 607.91 517.58 639.55 501.76 639.55 501.76 592.09 588.77 592.09"/>
    <path class="cls-1" d="M588.77,560.45h0c0,8.74-7.08,15.82-15.82,15.82h-55.37c-8.74,0-15.82-7.08-15.82-15.82h0s87.01,0,87.01,0Z"/>
    <path class="cls-1" d="M707.42,560.45h0c0,8.74-7.08,15.82-15.82,15.82h-47.46v63.27h-15.81v-79.1h79.1Z"/>
    <path class="cls-1" d="M340.14,623.73h0c0,8.74-7.08,15.82-15.82,15.82h-63.27v-79.1h15.81v63.27h63.28Z"/>
  </g>
  <path class="cls-1" d="M824.24,592.09h0c0,8.74-7.08,15.82-15.82,15.82h-55.37c-8.74,0-15.82-7.08-15.82-15.82h0s87.01,0,87.01,0Z"/>
  <g>
    <rect class="cls-1" x="933.93" y="592.09" width="15.82" height="47.46"/>
    <rect class="cls-1" x="862.74" y="560.45" width="15.82" height="47.46"/>
    <rect class="cls-1" x="985.92" y="560.45" width="15.82" height="47.46"/>
    <rect class="cls-1" x="1184.18" y="592.09" width="15.82" height="47.46"/>
    <path class="cls-1" d="M862.74,560.45h87.01v7.9c0,4.37-3.55,7.92-7.92,7.92h-79.09v-15.82h0Z"/>
    <rect class="cls-1" x="862.74" y="592.09" width="87.01" height="15.82"/>
    <rect class="cls-1" x="1057.33" y="592.09" width="15.82" height="47.46"/>
    <path class="cls-1" d="M986.15,560.45h87.01v7.9c0,4.37-3.55,7.92-7.92,7.92h-79.09v-15.82h0Z"/>
    <rect class="cls-1" x="986.15" y="592.09" width="87.01" height="15.82"/>
    <rect class="cls-1" x="1112.54" y="560.45" width="15.82" height="47.46" transform="translate(2240.9 1168.36) rotate(180)"/>
    <path class="cls-1" d="M1112.54,623.73h79.09c4.37,0,7.92,3.55,7.92,7.92v7.9h-87.01v-15.82h0Z" transform="translate(2312.09 1263.27) rotate(180)"/>
    <rect class="cls-1" x="1112.54" y="592.09" width="87.01" height="15.82" transform="translate(2312.09 1200) rotate(180)"/>
  </g>
</svg>