<?xml version="1.0" encoding="UTF-8"?>
<svg id="Layer_1" data-name="Layer 1" xmlns="http://www.w3.org/2000/svg" viewBox="0 0 1200 1200">
  <defs>
    <style>
      .cls-1 {
        fill: #fff;
      }
    </style>
  </defs>
  <path class="cls-1" d="M1008.09,191.91v408.11c0,134.69-65.28,254.17-165.93,328.48-67.76,50.04-151.51,79.59-242.18,79.59s-174.42-29.55-242.14-79.59c-23.37-17.23-44.8-36.89-63.92-58.61-63.51-71.92-102.01-166.43-102.01-269.88V191.91h266.17l141.95,105.3-304.33,225.82-1.77-1.36v2.68l1.77-1.32,100.28,74.39c-.04.87-.04,1.73-.04,2.6,0,91.21,59.84,168.41,142.44,194.54,19.45,6.14,40.14,9.48,61.62,9.48s42.2-3.34,61.66-9.48c31.57-9.97,59.8-27.45,82.64-50.28,36.93-36.89,59.76-87.91,59.76-144.25,0-.87,0-1.73-.04-2.6l100.32-74.39-304.29-225.82,141.9-105.3h266.17Z"/>
  <path class="cls-1" d="M927.2,994.76c-8.97-8.89-13.45-19.96-13.45-33.22s4.48-24.32,13.45-33.21c8.97-8.88,20.22-13.34,33.72-13.34s24.74,4.45,33.71,13.34c8.97,8.89,13.46,19.96,13.46,33.21s-4.49,24.32-13.46,33.22c-8.97,8.89-20.22,13.34-33.71,13.34s-24.75-4.44-33.72-13.34ZM934.31,934.43c-7.01,7.09-10.5,16.12-10.5,27.1s3.5,20.03,10.5,27.11c7.01,7.1,15.87,10.63,26.61,10.63s19.6-3.53,26.61-10.63c7-7.09,10.5-16.12,10.5-27.11s-3.51-20.02-10.5-27.1c-7.01-7.09-15.87-10.64-26.61-10.64s-19.6,3.55-26.61,10.64ZM945.5,978.08c-4.41-4.49-6.6-10-6.6-16.55s2.19-12.05,6.6-16.54c4.41-4.49,9.75-6.74,16.04-6.74,7.21,0,12.99,2.86,17.36,8.56,1.93,2.43,3.48,5.24,4.66,8.43h-10.69c-.76-1.34-1.64-2.6-2.64-3.78-2.52-2.52-5.41-3.77-8.68-3.77-3.61,0-6.61,1.29-9,3.89-2.38,2.6-3.58,5.92-3.58,9.94s1.2,7.35,3.58,9.95c2.39,2.6,5.4,3.89,9,3.89s6.41-1.26,8.93-3.77c.93-1.01,1.72-2.27,2.39-3.78h10.69c-1.18,3.35-2.72,6.2-4.66,8.55-4.36,5.62-10.14,8.43-17.36,8.43-6.29,0-11.64-2.25-16.04-6.74Z"/>
</svg>