<?xml version="1.0" encoding="UTF-8"?>
<svg id="Layer_1" data-name="Layer 1" xmlns="http://www.w3.org/2000/svg" viewBox="0 0 1400 1400">
  <defs>
    <style>
      .cls-1 {
        fill: #fff;
      }
    </style>
  </defs>
  <path class="cls-1" d="M1192.81,207.19v492.84c0,162.65-78.84,306.94-200.38,396.68-81.82,60.42-182.96,96.11-292.46,96.11s-210.63-35.69-292.41-96.11c-28.22-20.8-54.1-44.55-77.2-70.77-76.7-86.85-123.18-200.98-123.18-325.9V207.19h321.42l171.41,127.17-367.51,272.7-2.14-1.64v3.24l2.14-1.59,121.09,89.84c-.05,1.05-.05,2.09-.05,3.14,0,110.14,72.27,203.37,172.01,234.92,23.49,7.42,48.48,11.45,74.41,11.45s50.97-4.03,74.46-11.45c38.12-12.04,72.22-33.15,99.79-60.72,44.59-44.55,72.17-106.16,72.17-174.2,0-1.05,0-2.09-.05-3.14l121.14-89.84-367.46-272.7,171.36-127.17h321.42Z"/>
  <path class="cls-1" d="M1095.12,1176.71c-10.84-10.74-16.25-24.11-16.25-40.11s5.41-29.36,16.25-40.1c10.84-10.73,24.41-16.1,40.72-16.1s29.87,5.38,40.71,16.1c10.84,10.74,16.26,24.11,16.26,40.1s-5.42,29.37-16.26,40.11c-10.84,10.74-24.41,16.1-40.71,16.1s-29.88-5.36-40.72-16.1ZM1103.71,1103.86c-8.46,8.56-12.68,19.47-12.68,32.73s4.22,24.18,12.68,32.74c8.46,8.57,19.17,12.84,32.13,12.84s23.67-4.27,32.13-12.84c8.45-8.56,12.68-19.47,12.68-32.74s-4.24-24.17-12.68-32.73c-8.46-8.56-19.17-12.85-32.13-12.85s-23.67,4.29-32.13,12.85ZM1117.23,1156.57c-5.32-5.42-7.97-12.08-7.97-19.98s2.65-14.55,7.97-19.97c5.32-5.42,11.77-8.13,19.37-8.13,8.71,0,15.69,3.45,20.96,10.34,2.33,2.93,4.2,6.33,5.63,10.18h-12.91c-.91-1.62-1.98-3.14-3.19-4.56-3.04-3.04-6.54-4.55-10.48-4.55-4.35,0-7.98,1.56-10.87,4.7-2.88,3.14-4.32,7.15-4.32,12s1.44,8.87,4.32,12.01c2.89,3.14,6.52,4.7,10.87,4.7s7.74-1.52,10.78-4.55c1.12-1.22,2.07-2.74,2.89-4.56h12.91c-1.42,4.05-3.29,7.49-5.63,10.33-5.27,6.79-12.25,10.19-20.96,10.19-7.6,0-14.05-2.71-19.37-8.13Z"/>
</svg>