<?xml version="1.0" encoding="UTF-8"?>
<svg id="Layer_1" data-name="Layer 1" xmlns="http://www.w3.org/2000/svg" viewBox="0 0 1815.6 1429.47">
  <defs>
    <style>
      .cls-1 {
        fill: #fff;
      }
    </style>
  </defs>
  <g>
    <path class="cls-1" d="M787,674.64c-3.69,0-7.03-1.49-9.45-3.92-2.42-2.42-3.92-5.76-3.92-9.45h0c0-7.38-5.98-13.36-13.36-13.36h-53.49c-7.38,0-13.36,5.98-13.36,13.36h0c0,3.7-1.49,7.04-3.92,9.45-2.42,2.42-5.76,3.92-9.45,3.92h0c-7.38,0-13.36,5.98-13.36,13.36v53.49c0,7.38,5.98,13.36,13.36,13.36h0c7.38,0,13.37,5.99,13.37,13.37h0c0,7.39,5.98,13.37,13.36,13.37h53.49c7.38,0,13.36-5.98,13.36-13.36h0c0-3.7,1.49-7.04,3.92-9.46s5.76-3.92,9.45-3.92h0c7.38,0,13.36-5.98,13.36-13.36v-53.49c0-7.38-5.98-13.36-13.36-13.36h0ZM773.63,741.49c0,3.69-1.49,7.04-3.92,9.45-2.42,2.42-5.76,3.92-9.45,3.92h-53.48c-3.69,0-7.04-1.49-9.45-3.92-2.42-2.42-3.92-5.76-3.92-9.45v-53.48c0-3.69,1.5-7.04,3.92-9.45s5.76-3.92,9.45-3.92h53.48c7.38,0,13.36,5.98,13.36,13.36v53.48Z"/>
    <path class="cls-1" d="M535.96,766.46c.57,4.39-1,8.43-3.8,11.23-2.42,2.42-5.76,3.92-9.45,3.92h-80.23c-7.38,0-13.36-5.98-13.36-13.36h0c0-7.39-5.99-13.38-13.37-13.38h0c-7.38,0-13.36-5.98-13.36-13.36v-53.49c0-7.38,5.98-13.36,13.36-13.36h0c3.69,0,7.03-1.49,9.45-3.92,2.42-2.42,3.92-5.76,3.92-9.45h0c0-7.38,5.98-13.36,13.36-13.36h79.89c6.48,0,12.8,5.21,13.6,11.64.55,4.38-1.02,8.4-3.81,11.18-2.42,2.42-5.76,3.92-9.45,3.92h-80.22c-3.69,0-7.03,1.5-9.45,3.92-2.42,2.42-3.92,5.76-3.92,9.45s1.49,7.04,3.92,9.45c2.42,2.42,5.76,3.92,9.45,3.92h53.13c6.76,0,12.73,4.88,13.6,11.58.57,4.39-.99,8.44-3.8,11.24-2.42,2.42-5.76,3.92-9.45,3.92h-53.48c-3.69,0-7.03,1.49-9.45,3.91-2.42,2.42-3.92,5.76-3.92,9.45s1.49,7.04,3.92,9.45c2.42,2.42,5.76,3.92,9.45,3.92h79.89c6.76,0,12.72,4.89,13.59,11.59Z"/>
    <path class="cls-1" d="M346.47,701.39h-80.23c-7.38,0-13.36,5.98-13.36,13.36v26.75c0,7.38,5.98,13.36,13.36,13.36h0c3.69,0,7.03,1.49,9.45,3.92,2.42,2.42,3.92,5.76,3.92,9.45h0c0,7.39,5.98,13.37,13.36,13.37h53.48c3.69,0,7.04-1.49,9.45-3.92s3.92-5.76,3.92-9.45c0-3.69-1.5-7.03-3.92-9.45s-5.76-3.92-9.45-3.92h-53.48c-3.69,0-7.03-1.49-9.45-3.92-2.81-2.8-4.37-6.85-3.8-11.24.87-6.7,6.83-11.58,13.59-11.58h79.89c7.38,0,13.36-5.98,13.36-13.36v-26.76c0-7.38-5.98-13.36-13.36-13.36h0c-3.69,0-7.04-1.49-9.45-3.92-2.42-2.42-3.92-5.76-3.92-9.45h0c0-7.38-5.98-13.36-13.36-13.36h-53.13c-6.9,0-13.26,5.6-13.7,12.48-.26,4.05,1.27,7.73,3.89,10.33,2.42,2.42,5.76,3.92,9.45,3.92h53.48c3.7,0,7.04,1.5,9.45,3.92,2.42,2.42,3.92,5.76,3.92,9.45,0,3.69-1.49,7.04-3.92,9.45-2.42,2.42-5.76,3.92-9.45,3.92Z"/>
    <path class="cls-1" d="M658.41,660.39c.26,4.05-1.27,7.73-3.89,10.33-2.42,2.42-5.76,3.92-9.45,3.92h-53.48c-3.69,0-7.03,1.5-9.45,3.92-2.42,2.42-3.91,5.76-3.91,9.45v80.22c0,3.69-1.5,7.03-3.92,9.45-2.42,2.42-5.76,3.92-9.45,3.92s-7.04-1.49-9.45-3.92-3.92-5.76-3.92-9.45v-80.23c0-7.38,5.98-13.36,13.36-13.36h0c3.69,0,7.04-1.49,9.45-3.92,2.42-2.42,3.92-5.76,3.92-9.45h0c0-7.38,5.98-13.36,13.36-13.36h53.13c6.9,0,13.26,5.6,13.7,12.48Z"/>
  </g>
  <path class="cls-1" d="M805.07,660.86v-11.21h-4.69v-1.74h11.25v1.74h-4.73v11.21h-1.82ZM813.04,660.86v-12.95h2.87l3.68,7.4h1.01l3.64-7.4h2.87v12.95h-1.82v-10.84l.04-.4h-.04l-3.76,7.53h-2.91l-3.76-7.53h-.04l.04.4v10.84h-1.82Z"/>
</svg>