<?xml version="1.0" encoding="UTF-8"?>
<svg id="Layer_1" xmlns="http://www.w3.org/2000/svg" version="1.1" viewBox="0 0 1815.6 1429.5">
  <!-- Generator: Adobe Illustrator 29.7.1, SVG Export Plug-In . SVG Version: 2.1.1 Build 8)  -->
  <defs>
    <style>
      .st0 {
        fill: #fff;
      }
    </style>
  </defs>
  <g>
    <path class="st0" d="M1688.8,587.9c-11.7,0-22.2-4.7-29.9-12.4-7.7-7.6-12.4-18.2-12.4-29.9h0c0-23.3-18.9-42.2-42.2-42.2h-169.1c-23.3,0-42.2,18.9-42.2,42.2h0c0,11.7-4.7,22.3-12.4,29.9-7.6,7.7-18.2,12.4-29.9,12.4h0c-23.3,0-42.2,18.9-42.2,42.2v169.1c0,23.3,18.9,42.2,42.2,42.2h0c23.4,0,42.3,18.9,42.3,42.3h0c0,23.4,18.9,42.3,42.2,42.3h169.1c23.3,0,42.2-18.9,42.2-42.2h0c0-11.7,4.7-22.3,12.4-29.9,7.7-7.7,18.2-12.4,29.9-12.4h0c23.3,0,42.2-18.9,42.2-42.2v-169.1c0-23.3-18.9-42.2-42.2-42.2h0,0ZM1646.5,799.3c0,11.7-4.7,22.3-12.4,29.9-7.6,7.7-18.2,12.4-29.9,12.4h-169.1c-11.7,0-22.3-4.7-29.9-12.4-7.6-7.6-12.4-18.2-12.4-29.9v-169.1c0-11.7,4.7-22.3,12.4-29.9,7.6-7.6,18.2-12.4,29.9-12.4h169.1c23.3,0,42.2,18.9,42.2,42.2v169.1h0Z"/>
    <path class="st0" d="M895,878.2c1.8,13.9-3.2,26.6-12,35.5-7.6,7.7-18.2,12.4-29.9,12.4h-253.7c-23.3,0-42.2-18.9-42.2-42.2h0c0-23.4-18.9-42.3-42.3-42.3h0c-23.3,0-42.2-18.9-42.2-42.2v-169.1c0-23.3,18.9-42.2,42.2-42.2h0c11.7,0,22.2-4.7,29.9-12.4,7.7-7.6,12.4-18.2,12.4-29.9h0c0-23.3,18.9-42.2,42.2-42.2h252.6c20.5,0,40.5,16.5,43,36.8,1.7,13.9-3.2,26.5-12,35.4-7.6,7.7-18.2,12.4-29.9,12.4h-253.6c-11.7,0-22.2,4.7-29.9,12.4-7.7,7.6-12.4,18.2-12.4,29.9s4.7,22.3,12.4,29.9c7.7,7.6,18.2,12.4,29.9,12.4h168c21.4,0,40.2,15.4,43,36.6,1.8,13.9-3.1,26.7-12,35.6-7.6,7.6-18.2,12.4-29.9,12.4h-169.1c-11.7,0-22.2,4.7-29.9,12.4-7.7,7.7-12.4,18.2-12.4,29.9s4.7,22.3,12.4,29.9c7.7,7.7,18.2,12.4,29.9,12.4h252.6c21.4,0,40.2,15.4,43,36.6h0Z"/>
    <path class="st0" d="M295.9,672.5H42.2c-23.3,0-42.2,18.9-42.2,42.2v84.6c0,23.3,18.9,42.2,42.2,42.2h0c11.7,0,22.2,4.7,29.9,12.4,7.7,7.7,12.4,18.2,12.4,29.9h0c0,23.4,18.9,42.3,42.2,42.3h169.1c11.7,0,22.3-4.7,29.9-12.4s12.4-18.2,12.4-29.9-4.7-22.2-12.4-29.9c-7.6-7.7-18.2-12.4-29.9-12.4H126.8c-11.7,0-22.2-4.7-29.9-12.4-8.9-8.9-13.8-21.7-12-35.5,2.7-21.2,21.6-36.6,43-36.6h252.6c23.3,0,42.2-18.9,42.2-42.2v-84.6c0-23.3-18.9-42.2-42.2-42.2h0c-11.7,0-22.3-4.7-29.9-12.4-7.6-7.6-12.4-18.2-12.4-29.9h0c0-23.3-18.9-42.2-42.2-42.2H128c-21.8,0-41.9,17.7-43.3,39.5-.8,12.8,4,24.4,12.3,32.7,7.7,7.7,18.2,12.4,29.9,12.4h169.1c11.7,0,22.3,4.7,29.9,12.4,7.7,7.6,12.4,18.2,12.4,29.9s-4.7,22.3-12.4,29.9c-7.6,7.6-18.2,12.4-29.9,12.4h0Z"/>
    <path class="st0" d="M1282.2,542.9c.8,12.8-4,24.4-12.3,32.7s-18.2,12.4-29.9,12.4h-169.1c-11.7,0-22.2,4.7-29.9,12.4-7.6,7.6-12.4,18.2-12.4,29.9v253.6c0,11.7-4.7,22.2-12.4,29.9-7.6,7.7-18.2,12.4-29.9,12.4s-22.3-4.7-29.9-12.4c-7.6-7.7-12.4-18.2-12.4-29.9v-253.7c0-23.3,18.9-42.2,42.2-42.2h0c11.7,0,22.3-4.7,29.9-12.4,7.6-7.6,12.4-18.2,12.4-29.9h0c0-23.3,18.9-42.2,42.2-42.2h168c21.8,0,41.9,17.7,43.3,39.5h0Z"/>
  </g>
  <path class="st0" d="M1745.9,544.3v-35.4h-14.8v-5.5h35.6v5.5h-15v35.4h-5.7ZM1771.1,544.3v-40.9h9.1l11.6,23.4h3.2l11.5-23.4h9.1v40.9h-5.7v-35.6c.1,0,0,0,0,0l-11.9,23.8h-9.2l-11.9-23.8h-.1v1.3c.1,0,.1,34.3.1,34.3h-5.7,0Z"/>
</svg>