<?xml version="1.0" encoding="UTF-8"?>
<svg id="Layer_1" data-name="Layer 1" xmlns="http://www.w3.org/2000/svg" viewBox="0 0 1815.6 1429.47">
  <defs>
    <style>
      .cls-1 {
        fill: #fff;
      }
    </style>
  </defs>
  <g>
    <path class="cls-1" d="M1004.56,639.31c-6.94,0-13.22-2.81-17.78-7.37-4.56-4.54-7.37-10.83-7.37-17.78h0c0-13.88-11.25-25.13-25.13-25.13h-100.61c-13.88,0-25.13,11.25-25.13,25.13h0c0,6.96-2.81,13.24-7.37,17.78-4.54,4.56-10.83,7.37-17.78,7.37h0c-13.88,0-25.13,11.25-25.13,25.13v100.61c0,13.88,11.25,25.13,25.13,25.13h0c13.89,0,25.15,11.26,25.15,25.15h0c0,13.89,11.25,25.15,25.13,25.15h100.61c13.88,0,25.13-11.25,25.13-25.13h0c0-6.96,2.81-13.24,7.37-17.79,4.56-4.56,10.84-7.37,17.78-7.37h.01c13.88,0,25.13-11.25,25.13-25.13v-100.61c0-13.88-11.25-25.13-25.13-25.13h-.01ZM979.41,765.04c0,6.94-2.81,13.24-7.37,17.78-4.54,4.56-10.83,7.37-17.77,7.37h-100.59c-6.94,0-13.24-2.81-17.78-7.37-4.54-4.54-7.37-10.84-7.37-17.78v-100.58c0-6.94,2.82-13.24,7.37-17.78,4.54-4.54,10.84-7.37,17.78-7.37h100.59c13.88,0,25.13,11.25,25.13,25.13v100.59Z"/>
    <path class="cls-1" d="M532.39,811.99c1.07,8.26-1.88,15.85-7.15,21.13-4.54,4.56-10.84,7.37-17.78,7.37h-150.89c-13.88,0-25.13-11.25-25.13-25.13h0c0-13.9-11.26-25.16-25.15-25.16h-.01c-13.88,0-25.13-11.25-25.13-25.13v-100.61c0-13.88,11.25-25.13,25.13-25.13h.01c6.94,0,13.22-2.81,17.78-7.37,4.56-4.54,7.37-10.83,7.37-17.78h0c0-13.88,11.25-25.13,25.13-25.13h150.25c12.18,0,24.07,9.8,25.58,21.88,1.03,8.24-1.92,15.79-7.16,21.03-4.54,4.56-10.84,7.37-17.78,7.37h-150.87c-6.94,0-13.22,2.82-17.78,7.37-4.56,4.54-7.37,10.84-7.37,17.78s2.81,13.24,7.37,17.78c4.56,4.54,10.84,7.37,17.78,7.37h99.93c12.72,0,23.94,9.17,25.58,21.78,1.07,8.26-1.86,15.88-7.15,21.15-4.54,4.54-10.83,7.37-17.78,7.37h-100.58c-6.94,0-13.22,2.81-17.78,7.35-4.56,4.56-7.37,10.84-7.37,17.78s2.81,13.24,7.37,17.78c4.56,4.56,10.84,7.37,17.78,7.37h150.25c12.72,0,23.92,9.19,25.56,21.8Z"/>
    <path class="cls-1" d="M176.02,689.61H25.13C11.25,689.61,0,700.86,0,714.74v50.31c0,13.88,11.25,25.13,25.13,25.13h.01c6.94,0,13.22,2.81,17.78,7.37,4.56,4.56,7.37,10.84,7.37,17.78h0c0,13.89,11.25,25.15,25.13,25.15h100.59c6.94,0,13.24-2.81,17.78-7.37s7.37-10.84,7.37-17.78c0-6.94-2.82-13.22-7.37-17.78-4.54-4.56-10.84-7.37-17.78-7.37h-100.58c-6.94,0-13.22-2.81-17.78-7.37-5.28-5.27-8.22-12.88-7.15-21.14,1.63-12.61,12.85-21.78,25.56-21.78h150.26c13.88,0,25.13-11.25,25.13-25.13v-50.32c0-13.88-11.25-25.13-25.13-25.13h-.01c-6.94,0-13.24-2.81-17.78-7.37-4.54-4.54-7.37-10.83-7.37-17.78h0c0-13.88-11.25-25.13-25.13-25.13h-99.92c-12.97,0-24.94,10.54-25.77,23.48-.48,7.61,2.4,14.53,7.31,19.44,4.56,4.56,10.84,7.37,17.78,7.37h100.58c6.96,0,13.24,2.82,17.78,7.37,4.56,4.54,7.37,10.84,7.37,17.78,0,6.94-2.81,13.24-7.37,17.78-4.54,4.54-10.83,7.37-17.78,7.37Z"/>
    <path class="cls-1" d="M762.7,612.51c.48,7.61-2.4,14.53-7.31,19.44-4.56,4.56-10.84,7.37-17.78,7.37h-100.59c-6.94,0-13.22,2.82-17.78,7.37-4.54,4.54-7.35,10.84-7.35,17.78v150.87c0,6.94-2.82,13.22-7.37,17.78-4.54,4.56-10.84,7.37-17.78,7.37s-13.24-2.81-17.78-7.37c-4.54-4.56-7.37-10.84-7.37-17.78v-150.89c0-13.88,11.25-25.13,25.13-25.13h.01c6.94,0,13.24-2.81,17.78-7.37,4.54-4.54,7.37-10.83,7.37-17.78h0c0-13.88,11.25-25.13,25.13-25.13h99.92c12.97,0,24.94,10.54,25.77,23.48Z"/>
  </g>
  <path class="cls-1" d="M1038.53,613.38v-21.08h-8.83v-3.27h21.15v3.27h-8.9v21.08h-3.42ZM1053.52,613.38v-24.35h5.4l6.92,13.92h1.9l6.85-13.92h5.4v24.35h-3.42v-20.39l.08-.76h-.08l-7.08,14.15h-5.48l-7.08-14.15h-.08l.08.76v20.39h-3.42Z"/>
</svg>