<?xml version="1.0" encoding="UTF-8"?>
<svg id="Layer_1" data-name="Layer 1" xmlns="http://www.w3.org/2000/svg" viewBox="0 0 1080 1080">
  <defs>
    <style>
      .cls-1 {
        fill: #fff;
      }

      .cls-2 {
        opacity: .9;
      }
    </style>
  </defs>
  <g class="cls-2">
    <path class="cls-1" d="M724.43,509.86l-103.97-103.96c-44.37-44.37-116.56-44.37-160.93,0l-103.99,103.98c-18.67,18.67-28.97,43.53-28.97,69.96v32.18c0,2.7.11,5.4.36,8.07,1.99,23.4,12.66,45.53,29.95,61.66,17.87,16.66,40.7,25.63,64.95,25.63,2.27,0,4.56-.08,6.85-.24,47.91-3.31,85.96-42,88.49-89.98.06-1.4.12-2.8.12-4.21,13.81,12.18,26.23,23.45,39.11,35.15,11.24,10.19,22.63,20.63,33.97,31.1,15.78,15.91,37.14,26.3,60.94,27.94,2.29.16,4.58.24,6.85.24,24.25,0,47.08-8.97,64.95-25.63,17.29-16.13,27.96-38.26,29.95-61.66.25-2.67.36-5.37.36-8.07v-32.18c0-26.43-10.29-51.29-28.99-69.98ZM719.26,612.02c0,17.15-6.91,33.04-19.45,44.75-12.54,11.7-28.9,17.48-46.14,16.3-13.74-.95-26.21-6.45-35.95-14.97-1.35-1.17-2.63-2.41-3.87-3.69-9.81-10.25-16.1-23.93-16.89-39.04-1.37-25.73,13.62-49.74,37.29-59.74l-2.98-7.04c-5.99-14.17-24.15-18.64-35.74-8.52-19.44,16.97-31.53,41.44-32.71,67.76-14.7-13.27-29.85-26.75-48.18-42.45-9.91-8.47-19.95-16.91-29.82-25.08l-.02.03c-.07-.06-.15-.13-.23-.19-11.6-10.15-29.8-5.74-35.81,8.47l-2.97,7.03c23.67,10,38.65,34.02,37.29,59.74-1.63,30.78-26,55.58-56.72,57.7-17.22,1.2-33.59-4.6-46.14-16.3-12.53-11.71-19.45-27.6-19.45-44.75v-32.18c0-17.32,6.73-33.58,18.97-45.81l103.98-103.99c31.04-31.05,81.58-31.05,112.62,0l103.97,103.98c12.25,12.23,18.98,28.51,18.98,45.81v32.18Z"/>
  </g>
  <g class="cls-2">
    <path class="cls-1" d="M714.33,435.63c-3.29,3.29-7.28,4.93-11.97,4.93s-8.69-1.64-11.97-4.93c-3.29-3.29-4.93-7.28-4.93-11.97s1.64-8.69,4.93-11.97c3.29-3.29,7.28-4.93,11.97-4.93s8.77,1.63,12.02,4.88c3.25,3.25,4.88,7.26,4.88,12.02s-1.64,8.69-4.93,11.97ZM693.64,432.37c2.4,2.4,5.3,3.6,8.71,3.6s6.31-1.2,8.71-3.6c2.4-2.4,3.6-5.3,3.6-8.71s-1.2-6.31-3.6-8.71c-2.4-2.4-5.3-3.6-8.71-3.6s-6.31,1.2-8.71,3.6c-2.4,2.4-3.6,5.3-3.6,8.71s1.2,6.31,3.6,8.71ZM702.09,433.67c-2.68,0-4.98-.97-6.91-2.9-1.93-1.93-2.89-4.27-2.89-7.02s.96-5.09,2.87-7.02c1.91-1.93,4.23-2.9,6.94-2.9,1.81,0,3.48.46,5.01,1.38,1.53.92,2.71,2.15,3.55,3.68l-3.65,2.09c-.49-.9-1.17-1.63-2.03-2.16-.87-.54-1.83-.81-2.87-.81-1.53,0-2.84.56-3.94,1.67s-1.64,2.47-1.64,4.07.55,2.96,1.64,4.07c1.1,1.11,2.41,1.67,3.94,1.67,1.08,0,2.06-.29,2.95-.86s1.56-1.33,2.01-2.27l3.76,1.93c-.83,1.6-2.03,2.9-3.6,3.89s-3.27,1.49-5.11,1.49Z"/>
  </g>
</svg>